<svg xmlns="http://www.w3.org/2000/svg" xmlns:xlink="http://www.w3.org/1999/xlink" width="1024" height="1024"><path fill="#FEFEFE" d="M0 0L1024 0L1024 1024L0 1024L0 0Z"/><path d="M385.784 17.7062C387.44 17.4656 389.322 17.4348 391 17.5073C400.745 17.9286 415.898 28.9755 422.358 35.9784C426.05 39.981 427.504 43.809 428.146 49.1117C429.36 59.1417 428.51 69.8872 428.187 79.9891Q427.578 97.6469 427.288 115.313L423.701 250.274C430.146 249.01 437.199 247.075 443.789 247.185C447.174 247.241 450.251 247.814 453.407 249.082C461.522 252.342 480.718 265.763 486.689 272.262C497.365 283.883 492.766 308.524 492.359 323.202C501.712 327.788 511.576 331.313 521.047 335.644C532.178 340.733 557.547 353.968 567.047 361.194C569.488 363.051 571.955 365.295 573.29 368.097C575.619 372.982 575.387 380.018 573.403 384.967C571.933 388.634 569.145 391.818 565.462 393.359C562.594 394.559 559.499 394.675 556.492 393.969C549.572 392.343 542.833 388.575 536.428 385.534C520.068 377.767 504.029 368.843 487.484 361.556C487.11 375.238 487.818 388.396 491.75 401.624C494.277 410.125 497.629 418.439 499.598 427.102C501.759 436.614 501.225 447.796 497.52 456.843C495.492 461.795 493.152 466.585 492.32 471.923C489.924 487.299 492.416 507.869 483.965 521.18C486.018 532.046 490.726 542.661 493.631 553.368Q500.499 578.202 505.342 603.508Q510.186 628.814 512.974 654.429C513.474 659.237 514.894 665.676 513.946 670.36C513.564 672.247 512.62 674.11 510.924 675.13C509.615 675.917 507.799 676.211 506.338 675.7C504.341 675.002 503.431 672.944 502.95 671.048C501.979 667.225 502.268 662.924 501.867 658.984Q500.506 646.37 498.772 633.802C496.31 616.021 492.675 598.77 488.704 581.282C484.197 561.429 479.449 540.584 470.869 522.036C464.322 523.918 457.136 525.472 451.445 529.374C453.084 539.137 458.643 548.617 461.608 558.132C467.852 578.161 472.104 598.297 475.604 618.954C478.15 635.394 480.636 651.992 481.977 668.582C482.239 671.823 482.258 677.964 479.537 680.308C478.679 681.047 477.917 681.455 476.771 681.216C472.863 680.403 471.163 676.99 470.859 673.392C467.532 633.953 461.426 592.808 448.412 555.27C446.382 549.416 444.418 543.341 441.614 537.808C424.432 535.051 416.038 514.195 406.95 501.364C403.012 495.805 398.619 491.009 393.481 486.549Q391.173 486.88 388.859 487.161C336.999 493.234 284.907 497.858 232.958 503.131C217.539 504.696 202.154 506.577 186.721 508.006C179.577 508.668 171.436 510.062 164.296 509.151C154.435 507.892 134.625 495.344 126.867 489.109C120.243 483.785 117.106 477.456 116.291 469.07C114.744 453.162 115.997 436.384 115.842 420.379C115.371 371.88 116.45 323.24 117.082 274.738Q118.04 198.479 119.95 122.239L120.822 82.8019C120.981 74.8325 120.797 66.6068 121.661 58.6838C122.13 54.3837 124.071 50.3891 126.843 47.1155C129.64 43.8128 133.662 41.7485 137.884 40.9476C146.681 39.279 156.237 39.0002 165.183 38.1653L219.702 33.1249Q302.698 24.9242 385.784 17.7062Z"/><path fill="#FEFEFE" d="M416.475 51.2737C417.813 53.5664 415.101 117.566 414.749 124.203C412.53 119.909 410.008 115.795 406.286 112.63C403.867 110.573 401.164 109.142 398.135 108.208C377.186 101.745 330.364 105.013 307.912 106.689C285.924 108.331 263.956 110.231 242.166 113.689C233.58 115.052 224.215 116.255 216.153 119.586Q214.45 120.284 212.845 121.184Q211.24 122.083 209.756 123.171Q208.273 124.259 206.932 125.52Q205.591 126.78 204.414 128.194C200.961 132.313 199.109 137.295 198.397 142.578C197.518 149.101 197.496 155.831 197.252 162.405Q196.584 180.511 196.219 198.626Q194.781 260.831 194.418 323.052L193.921 372.835C193.79 381.657 193.033 390.933 193.784 399.7C194.588 409.086 198.793 418.493 206.09 424.607C210.476 428.283 216.301 431.416 222.013 432.178C232.088 433.524 250.896 430.633 261.604 429.752Q311.759 425.625 361.85 420.787C362.852 426.329 363.042 432.023 364.052 437.586C366.733 452.345 375.033 464.156 383.939 475.844C377.236 477.105 370.201 477.565 363.413 478.33L227.992 492.3L189.662 496.261C182.216 497.02 174.619 498.096 167.134 498.134C166.388 497.532 165.635 496.924 164.952 496.25C162.783 494.108 161.916 491.981 161.687 488.982C160.669 475.642 161.868 461.649 161.877 448.234L161.69 360.869L162.075 76.6451C170.654 74.4707 180.413 74.0304 189.25 73.1013Q217.271 70.2744 245.324 67.7891L416.475 51.2737Z"/><path fill="#FEFEFE" d="M364.389 126.765Q372.788 126.577 381.189 126.671C390.012 126.834 404.446 126.626 410.888 133.742C412.194 135.185 413.129 137.017 413.429 138.945C415.393 151.557 413.708 165.413 413.373 178.171Q412.595 215.726 411.063 253.257C401.375 248.202 391.575 242.415 382.416 236.455C381.809 234.063 381.336 231.177 380.209 228.986C378.027 224.743 370.967 223.778 366.771 222.239C358.329 219.143 350.484 206.772 344.456 205.477C341.762 204.898 291.491 214.199 285.56 215.84C283.592 216.385 282.035 217.15 280.335 218.272Q279.015 224.463 277.859 230.687C271.717 234.297 265.759 238.359 261.36 244.06C253.069 254.802 250.694 270.181 252.456 283.357C253.179 288.762 254.825 295.508 258.112 299.983C263.515 307.34 283.645 322.015 291.507 328.88C296.524 333.26 300.818 338.536 306.074 342.599C312.984 342.4 320.132 341.137 327.041 340.478C337.387 347.383 346.569 355.872 357.193 362.546C358.385 363.711 361.374 408.446 361.67 413.736Q324.436 417.485 287.123 420.344C271.659 421.628 256.198 423.325 240.708 424.266C234.505 424.643 228.245 424.83 223.389 420.155C220.229 417.112 219.872 413.212 219.817 409.08C219.725 402.202 220.267 395.274 220.418 388.392L221.297 343.183L223.076 244.101L224.22 185.965C224.398 175.663 223.755 164.668 225.172 154.488C225.878 149.417 228.268 144.348 231.967 140.764C245.848 127.315 341.769 126.778 364.389 126.765Z"/><path d="M327.166 376.611C330.403 376.22 333.392 376.302 336.5 377.395C340.71 378.878 344.269 381.901 346.193 385.956C348.093 389.961 348.165 394.325 346.503 398.426C344.242 404.004 339.793 407.771 334.41 410.171C330.984 410.888 327.547 411.17 324.18 409.996C320.509 408.715 317.735 405.871 316.144 402.367C313.983 397.608 314.11 392.126 316.066 387.323C318.3 381.84 321.88 378.84 327.166 376.611Z"/><path fill="#FEFEFE" d="M330.416 382.055C332.209 382.064 333.45 382.129 335.102 382.855C334.947 383.773 331.321 385.245 330.437 386.181C329.265 390.858 329.099 397.243 329.524 402.062C330.533 403.083 330.717 403.259 332.092 403.625C333.748 403.067 333.977 402.029 335.151 400.96C336.135 400.065 337.014 400.092 338.281 400.074L339.058 400.518C338.181 401.438 337.299 402.367 336.204 403.031C333.209 404.849 329.17 405.634 325.762 404.822C324.827 403.968 324.787 404.068 324.72 402.818L326.648 400.723C327.502 397.395 330.157 388.008 329.437 384.997C329.29 384.382 328.573 383.428 328.25 382.842L330.416 382.055Z"/><path fill="#FEFEFE" d="M326.28 382.925L326.715 383.259C325.331 384.816 323.788 386.557 322.853 388.423C321.458 391.205 323.947 399 322.26 402.063C321.83 401.555 321.406 401.059 321.041 400.503C319.369 397.959 318.806 395.038 319.446 392.058C320.303 388.072 322.961 385.104 326.28 382.925Z"/><path fill="#FEFEFE" d="M335.401 389.319C336.378 389.801 336.951 390.298 337.785 390.99C338.357 392.632 338.189 393.112 337.89 394.779C336.943 394.971 336.477 394.98 335.545 394.892L334.777 393.846C334.615 392.236 335.018 390.864 335.401 389.319Z"/><path d="M334.115 143.074C335.933 142.922 338.037 142.786 339.798 143.313C342.967 144.263 345.48 146.799 346.874 149.736C348.838 153.877 349.053 159.456 347.42 163.736C345.879 167.777 343.4 169.896 339.548 171.684C337.229 171.896 334.737 171.862 332.558 170.943C329.368 169.597 327.064 166.726 325.913 163.521C324.339 159.138 324.374 153.615 326.442 149.397C328.175 145.863 330.5 144.379 334.115 143.074Z"/><path fill="#FEFEFE" d="M335.513 148.272C335.774 148.3 336.037 148.315 336.297 148.354C337.933 148.601 338.868 149.298 339.785 150.631C341.683 153.394 341.931 157.178 341.318 160.379C340.807 163.051 340.223 164.356 337.965 165.931C336.347 165.634 334.913 165.317 333.769 164.062C332.138 162.274 331.45 159.623 331.525 157.249C331.644 153.463 332.781 150.819 335.513 148.272Z"/><path d="M308.746 143.128C311.678 142.911 316.16 143.002 318.738 144.571C319.802 145.219 320.411 146.205 320.529 147.449C320.78 150.103 319.103 152.61 317.663 154.664C316.781 155.922 322.193 158.217 322.482 162.22C322.614 164.052 321.41 166.561 320.273 167.938C318.29 170.338 315.293 171.45 312.262 171.703C308.727 171.998 304.88 171.164 302.23 168.679C300.113 166.695 299.974 164.727 299.802 161.945C301.684 162.121 303.531 162.236 305.421 162.244C306.429 163.608 307.584 165.277 308.968 166.278C309.755 166.847 310.953 167.386 311.928 167.025C313.059 166.606 314.048 165.202 314.481 164.111C314.835 163.223 314.994 161.774 314.412 160.93C313.533 159.656 311.539 158.876 310.06 158.613C309.065 158.437 308.225 158.218 307.266 157.893L306.969 157.036C308.056 154.887 310.16 153.685 311.788 151.98C312.575 151.155 313.066 150.651 313.084 149.477C312.697 149.153 312.349 148.824 311.874 148.615C308.384 147.077 306.228 150.942 303.184 151.53C302.425 151.677 302.078 151.227 301.466 150.845C300.464 149.348 300.288 148.123 300.036 146.347L299.943 145.652C302.882 144.538 305.649 143.684 308.746 143.128Z"/><path d="M284.718 143.169C287.806 143.172 290.543 143.309 293.228 144.975C294.958 146.047 296.066 147.314 296.389 149.387C296.664 151.142 295.718 153.317 294.672 154.666C294.187 155.292 293.675 155.895 293.197 156.53C293.378 156.691 293.542 156.874 293.741 157.013C294.134 157.291 294.583 157.482 294.978 157.757C296.31 158.68 297.009 160.03 297.262 161.607C297.613 163.789 297.03 165.81 295.621 167.501C293.428 170.131 289.827 171.398 286.491 171.605C283.33 171.8 279.917 171.032 277.536 168.839C275.944 167.373 275.001 165.456 274.904 163.297C276.072 162.136 277.848 162.407 279.469 162.305C280.038 162.255 280.658 162.338 281.229 162.37C282.036 163.5 282.872 164.539 283.78 165.588C285.011 166.145 286.219 166.402 287.532 165.917C288.723 165.478 289.855 164.642 290.313 163.405C290.773 162.164 290.484 161.651 289.937 160.589C288.368 159.414 287.429 159.767 285.683 159.281C284.465 158.943 283.872 158.452 283.168 157.443C283.564 155.261 288.412 154.281 289.848 152.102C289.932 150.995 289.859 150.092 288.982 149.261C285.049 145.537 281.157 153.568 276.809 153.082C275.753 152.472 275.458 152.044 274.915 150.961C274.925 149.879 275.063 149.109 275.773 148.248C278.148 145.365 281.079 143.745 284.718 143.169Z"/><path d="M368.985 143.569L375.363 143.722C374.666 146.29 373.83 148.837 373.055 151.383C370.725 157.771 368.872 164.327 366.531 170.719C364.14 170.97 361.679 170.907 359.274 170.95C355.549 162.365 351.772 152.766 349.865 143.594L356.556 143.653C358.818 149.974 360.861 156.391 363.003 162.755C364.64 156.307 367.042 149.945 368.985 143.569Z"/><path fill="#FEFEFE" d="M467.493 278.673C469.602 278.371 471.895 278.185 474.026 278.284C475.976 278.374 478.084 278.771 479.418 280.326C485.397 287.297 481.989 311.535 481.116 320.328C477.358 318.877 473.623 317.357 470.062 315.464C461.448 310.884 451.601 303.433 441.27 306.248C436.857 307.451 433.868 310.445 431.711 314.377C429.596 318.229 428.693 322.505 429.994 326.785C430.937 329.886 432.898 332.535 435.41 334.55C438.943 337.384 443.309 339.074 447.351 341.048C457.221 345.867 467.437 350.178 477.148 355.277C476.094 368.708 476.421 381.561 479.292 394.779C484.396 418.278 496.605 436.729 484.55 460.652C483.375 462.983 482.577 463.788 480.073 464.599C464.878 468.922 449.408 471.09 434.028 474.513C424.43 460.78 412.694 440.406 408.051 424.477C404.309 411.642 404.249 398.272 403.551 385.024Q402.646 368.769 401.532 352.527C400.482 336.508 398.189 317.779 398.519 302.062C418.809 289.549 444.028 282.287 467.493 278.673Z"/><path fill="#FEFEFE" d="M134.035 58.6679C139.171 60.9618 152.179 71.0422 157.092 74.9656C157.303 84.3681 156.995 93.8272 156.974 103.237L156.968 157.586L156.872 336.221L156.926 440.697L156.695 474.239C156.649 480.777 156.918 487.505 156.412 494.016L155.935 494.287L154.088 492.93C147.235 488.253 138.247 484.414 132.516 478.432C129.874 475.674 128.877 472.963 128.517 469.206C127.501 458.605 128.436 443.521 128.483 432.323L128.948 353.75Q130.05 206.185 134.035 58.6679Z"/><path fill="#FEFEFE" d="M369.92 290.115C377.962 294.798 385.68 300.153 393.424 305.315C394.415 314.168 394.709 323.111 395.293 331.999Q396.914 354.537 398.287 377.092C399.384 394.846 399.291 413.106 405.077 430.106C410.454 445.902 419.775 460.541 428.356 474.76C424.942 476.099 421.635 477.771 418.318 479.337C415.283 480.89 412.152 482.245 409.041 483.636C398.526 474.79 388.334 463.919 381.607 451.908Q380.471 449.859 379.493 447.73Q378.516 445.601 377.705 443.403Q376.893 441.206 376.251 438.953Q375.609 436.699 375.14 434.404C373.481 426.384 373.276 418.039 372.749 409.886C371.663 393.068 371.2 375.917 369.149 359.206C368.626 354.939 366.986 350.786 365.838 346.654Q364.547 341.95 363.917 337.112Q363.288 332.275 363.332 327.397C363.36 314.532 366.505 302.408 369.92 290.115Z"/><path fill="#FEFEFE" d="M383.25 30.2956C385.581 30.0893 388.295 29.6418 390.608 30.0007C399.086 31.3165 410.761 39.8351 415.607 46.7975L240.234 63.2405Q203.764 66.4915 167.382 70.6078L161.135 71.6524C153.246 65.3296 144.518 59.6654 136.249 53.8343C145.244 51.3671 155.928 51.4098 165.248 50.5082Q194.046 47.5592 222.879 44.9702L321.749 35.8855C342.248 33.958 362.708 31.7495 383.25 30.2956Z"/><path fill="#FEFEFE" d="M214.17 125.863C219.835 126.461 226.902 131.497 231.831 134.286C228.949 136.92 226.275 139.631 224.139 142.918Q223.243 144.294 222.523 145.769Q221.802 147.244 221.267 148.796Q220.733 150.349 220.392 151.954Q220.051 153.56 219.909 155.196C218.605 169.945 219.342 185.337 219.085 200.172L217.442 294.282L215.774 376.886C215.546 388.362 213.867 408.735 216.024 419.341L216.2 419.669L215.677 419.899C211.388 417.796 207.67 414.218 204.967 410.327Q204.336 409.4 203.765 408.434Q203.194 407.469 202.685 406.469Q202.176 405.47 201.731 404.44Q201.286 403.41 200.908 402.355Q200.529 401.299 200.217 400.221Q199.906 399.144 199.664 398.049Q199.421 396.953 199.248 395.845Q199.075 394.737 198.973 393.62C197.71 380.879 198.895 366.79 198.92 353.918Q198.884 307.725 199.857 261.542Q200.46 220.272 201.724 179.018C202.097 167.168 201.505 152.635 203.765 141.083C205.06 134.463 208.681 129.617 214.17 125.863Z"/><path fill="#FEFEFE" d="M277.41 236.472C278.132 238.023 278.136 239.662 279.13 241.202C282.82 246.916 291.129 251.287 296.461 255.536C296.555 277.855 296.31 301.169 294.806 323.434C291.959 320.469 288.957 317.649 285.993 314.801C278.386 308.894 270.434 303.476 265.539 294.948C259.648 284.685 256.279 270.004 259.469 258.38C262.316 248.007 268.16 241.677 277.41 236.472Z"/><path fill="#FEFEFE" d="M344.274 109.723C356.566 109.377 369.914 108.692 382.011 111.096C386.934 112.075 398.567 115.689 401.267 120.234C401.698 120.96 401.399 121.147 401.142 121.865C396.605 122.853 390.8 122.02 386.101 121.967Q373.765 121.824 361.429 121.885C332.255 121.997 303.018 122.43 274.014 125.85C261.124 127.011 248.178 129.507 235.499 132.058C230.626 128.273 225.784 125.749 220.163 123.205C259.325 113.358 303.895 111.193 344.274 109.723Z"/><path fill="#FEFEFE" d="M444.135 311.073C446.043 310.913 447.516 310.931 449.335 311.62C458.989 315.274 469.474 321.537 478.815 326.215C491.38 332.507 504.792 338.249 516.811 345.463C511.829 351.206 508.152 355.839 507.225 363.652C494.279 357.901 481.684 351.104 468.906 344.96C459.607 340.489 449.169 336.684 440.568 331.046C438.344 329.588 436.477 328.114 435.432 325.59C434.436 323.183 434.601 320.686 435.689 318.337C437.419 314.601 440.374 312.455 444.135 311.073Z"/><path fill="#FEFEFE" d="M331.506 280.385C340.856 281.258 351.124 287.985 359.475 292.237C353.849 314.633 352.792 324.799 355.214 348.104C349.878 344.71 344.607 341.187 339.341 337.683C332.381 333.052 328.051 329.861 326.365 321.175C323.879 308.371 323.903 291.572 331.506 280.385Z"/><path fill="#FEFEFE" d="M448.084 259.472C455.693 261.308 463.774 268.078 469.487 273.164C443.848 277.451 415.37 284.174 393.94 299.563C387.477 295.657 376.774 289.725 371.729 284.386C371.565 283.175 371.589 282.922 372.022 281.78C373.967 280.001 380.426 279.065 383.134 278.4C403.392 273.426 428.436 268.335 447.374 259.797L448.084 259.472Z"/><path fill="#FEFEFE" d="M340.65 210.64L341.53 210.491C342.491 211.233 342.175 210.9 342.882 211.757C350.374 220.843 359.086 226.317 369.883 230.754C350.589 232.652 331.373 235.557 312.09 237.667C308.966 238.132 305.854 238.397 302.706 238.633C296.242 233.825 288.835 227.881 283.918 221.508C291.22 219.15 299.149 218.106 306.686 216.751L340.65 210.64Z"/><path fill="#FEFEFE" d="M455.693 474.675L457.544 474.449C459.135 475.226 459.59 476.323 460.577 477.769Q470.853 475.988 481.158 474.389C480.236 481.206 479.962 488.205 479.342 495.066C471.989 498.553 458.645 501.114 453.018 506.318C452.705 507.473 452.587 507.823 452.958 509.003C453.361 510.287 454.141 511.263 455.369 511.842C460.913 514.454 472.198 509.51 477.744 507.784C476.847 510.299 475.887 512.978 474.125 515.026C467.505 522.72 457.875 520.692 449.05 521.772C446.216 522.118 443.395 523.413 440.551 523.435C437.641 523.457 436.001 521.579 434.096 519.7L430.365 515.219C435.943 512.946 441.501 510.669 446.976 508.156L445.105 501.315C450.342 499.143 455.608 496.885 460.716 494.428C464.207 492.75 468.595 490.434 469.929 486.562C469.729 485.718 469.894 485.62 469.272 485.174C464.86 482.012 444.96 488.361 439.332 489.24L438.255 487.468C436.047 486.277 421.825 489.588 418.431 490.072C423.189 487.068 435.334 479.507 440.027 477.792C444.941 475.997 450.535 475.478 455.693 474.675Z"/><path fill="#FEFEFE" d="M364.353 259.699C374.054 258.445 385.621 259.452 394.796 262.911C392.011 264.441 389.115 265.809 386.273 267.231C384.592 266.515 382.779 265.927 381.008 265.471C367.302 261.94 344.084 263.061 331.886 270.778C322.804 276.524 320.552 286.016 318.372 295.818C317.122 304.271 317.538 311.831 318.738 320.236L310.869 321.777C308.932 307.439 309.866 283.631 313.506 269.866C322.245 265.565 353.395 260.946 364.353 259.699Z"/><path fill="#FEFEFE" d="M519.596 350.315C528.231 355.479 537.416 359.836 546.441 364.28C550.466 366.262 554.822 368.077 558.616 370.471C560.727 371.802 562.956 373.615 563.441 376.209C563.743 377.821 563.205 379.685 562.274 381.011C561.253 382.464 560.068 382.972 558.376 383.24L557.494 382.918C552.907 381.209 515.425 364.494 513.961 362.969C513.695 362.692 513.643 362.27 513.485 361.92C513.6 357.403 516.646 353.497 519.596 350.315Z"/><path fill="#FEFEFE" d="M439.466 492.058C441.54 492.379 444.497 492.177 446.314 493.211L446.219 493.535C441.796 497.961 432.857 501.601 427.107 504.192C425.83 504.576 424.383 505.106 423.125 504.39C421.143 503.262 420.639 500.587 419.993 498.559C426.147 495.82 433.032 494.092 439.466 492.058Z"/><path fill="#FEFEFE" d="M283.906 228.188Q290.683 234.874 297.758 241.245C297.683 241.509 297.61 241.775 297.531 242.038C296.786 244.517 296.422 246.653 296.23 249.215C291.077 245.457 285.334 242.277 281.577 237.007C282.107 233.902 282.789 231.135 283.906 228.188Z"/><path d="M897.795 23.1995C899.268 23.0876 900.762 22.9559 902.24 22.9588C914.444 22.982 935.519 34.3352 943.94 42.9038C947.909 46.943 949.956 51.1087 950.459 56.7576C952.286 77.2998 949.799 106.568 946.915 127.255C946.007 133.766 943.763 140.274 943.304 146.801C942.262 161.609 942.739 176.746 942.455 191.602C942.012 214.829 941.19 238.031 940.99 261.267C948.03 268.606 955.985 272.614 959.762 282.795C962.975 291.456 958.989 311.796 958.496 321.836C958.074 330.425 958.072 338.975 958.883 347.548Q959.895 357.395 962.646 366.904C966.554 380.015 972.484 392.49 972.401 406.477C972.32 420.245 963.4 430.722 961.461 443.813C959.478 457.207 964.559 471.606 961.532 484.213C960.887 486.901 959.613 489.486 958.497 492.006C966.303 519.544 980.479 546.773 997.733 569.521C999.426 571.754 1001.93 575.565 1001.1 578.553C1000.69 580.003 1000.22 580.253 999.067 581.113C997.484 581.45 996.362 581.473 994.841 580.83C989.907 578.743 986.156 572.168 983.211 567.89C971.506 550.893 961.638 531.943 954.081 512.735C950.767 504.312 948.046 495.643 944.963 487.129C938.892 489.119 933.36 491.948 928.061 495.494C936.019 522.922 948.558 553.312 964.582 577.023C967.673 581.597 979.674 595.278 978.976 599.836C978.747 601.336 977.632 603.017 976.308 603.78C975.144 604.451 974.143 604.345 972.897 603.946C968.959 602.684 965.269 596.788 962.901 593.533C949.088 574.539 938.949 554.458 929.985 532.812C926.905 525.367 924.242 517.789 921.572 510.19Q919.661 509.694 917.759 509.163C905.242 505.65 901.836 491.139 896.145 481.02C874.382 484.937 852.697 489.5 830.937 493.505Q775.303 503.7 719.434 512.517C703.615 515.055 687.737 518.223 671.855 520.249C657.923 522.027 648.932 517.325 638.115 508.889C629.088 501.85 621.763 494.258 620.427 482.42C619.67 475.713 620.064 468.655 620.056 461.902Q619.979 442.02 620.342 422.141L621.073 327.885Q621.324 240.51 623.298 153.157L624.316 105.018C624.498 95.5849 624.213 85.9245 625.116 76.5351C625.589 71.6182 627.219 66.7074 630.388 62.8582C633.608 58.9479 638.666 56.5949 643.527 55.4445C653.398 53.1088 664.206 52.3458 674.286 51.0597L730.14 44.0104C785.997 37.0001 841.853 29.4668 897.795 23.1995Z"/><path fill="#FEFEFE" d="M934.832 54.6932C935.255 54.6145 935.56 54.5351 936.008 54.5666C937.297 54.6572 938.242 55.4721 938.981 56.4635C945.513 65.2337 940.001 112.889 938.703 124.625C934.749 116.777 930.811 109.399 923.459 104.18C914.865 98.0782 903.323 95.8145 893.012 95.0168C878.315 93.8797 863.223 95.6554 848.606 97.1955Q810.242 101.4 772.209 107.95C752.696 111.194 725.863 113.239 713.621 131.045Q713.017 131.928 712.469 132.847Q711.921 133.766 711.431 134.717Q710.941 135.668 710.512 136.648Q710.082 137.628 709.714 138.633Q709.347 139.638 709.042 140.663Q708.738 141.689 708.497 142.732Q708.257 143.774 708.083 144.83Q707.908 145.886 707.799 146.95C707.069 153.747 707.292 160.865 707.149 167.712Q706.718 187.795 706.491 207.882Q705.089 265.299 704.335 322.729L703.289 376.986C703.025 388.529 701.517 401.531 703.58 412.86C705.562 423.744 711.113 431.666 720.141 437.936C728.199 443.531 738.637 447.924 748.45 448.919C758.464 449.935 776.807 446.656 787.406 445.427C812.965 442.463 839.398 440.024 864.678 435.429C871.456 449.295 885.143 456.55 891.6 470.629C883.186 472.499 874.644 473.924 866.158 475.422Q802.516 487.875 738.467 498.029L693.881 505.018C685.777 506.265 677.562 507.915 669.408 508.666C667.894 508.806 664.437 509.23 663.372 508.135C662.253 506.985 662.1 505.354 662.007 503.828C661.131 489.497 661.635 474.901 661.743 460.541L662.404 386.278Q663.897 237.779 667.016 89.3044L800.121 72.3671Q867.559 64.1604 934.832 54.6932Z"/><path fill="#FEFEFE" d="M912.408 120.223Q913.387 120.171 914.367 120.165C919.508 120.107 924.363 121.742 928.047 125.465C930.639 128.082 931.957 130.919 932.518 134.512C934.032 144.22 932.703 159.174 932.573 169.591L931.087 251.72C929.333 249.986 927.728 248.565 925.62 247.251C918.167 248.777 910.722 250.158 903.129 250.768C898.24 244.769 895.831 237.896 889.822 232.766C886.248 233.59 882.757 234.451 879.083 234.648C870.566 229.461 862.348 223.699 853.991 218.249C843.673 220.124 803.667 226.393 797.32 230.726C793.7 233.198 793.173 240.807 792.301 244.87L786.653 245.448C781.719 249.99 777.479 254.341 774.175 260.224C768.132 270.98 766.571 283.322 770.055 295.206C774.744 311.199 785.699 318.039 799.758 325.2Q808.532 329.643 817.133 334.413C816.592 340.854 815.709 347.784 816.588 354.192C817.361 355.193 818.268 356.248 819.263 357.033C823.429 360.324 838.407 356.603 844.071 355.911C846.945 366.318 850.629 376.6 853.776 386.94C849.109 387.02 845.741 387.207 841.669 389.941C837.357 392.837 834.238 397.502 833.395 402.642C832.574 407.648 833.977 411.946 836.794 416.047C838.766 417.972 840.813 419.648 843.313 420.855C849.408 423.797 855.107 422.453 861.138 420.346L862.92 426.848C858.872 427.827 854.641 428.362 850.512 428.903L787.054 436.866C778.654 437.95 761.43 441.165 753.659 440.572C750.304 440.316 746.272 438.51 743.681 436.399C739.435 432.937 737.874 427.444 737.526 422.189C736.55 407.453 737.889 392.253 738.274 377.494L740.444 293.037L742.348 203.909C742.683 189.068 741.979 173.392 743.761 158.686C744.485 152.717 746.51 147.105 750.598 142.591Q751.325 141.798 752.11 141.063Q752.895 140.328 753.733 139.654Q754.572 138.981 755.459 138.373Q756.346 137.765 757.277 137.226Q758.208 136.688 759.177 136.222Q760.146 135.755 761.148 135.364Q762.15 134.973 763.179 134.659Q764.208 134.345 765.257 134.11C770.55 132.881 776.433 132.792 781.857 132.314Q796.685 131.053 811.496 129.606L867.476 124.229C882.385 122.726 897.431 120.808 912.408 120.223Z"/><path d="M854.754 148.614C856.858 148.437 859.216 148.407 861.218 149.147C864.313 150.29 866.658 152.788 867.858 155.831C869.397 159.73 869.142 164.563 867.358 168.337C865.548 172.165 862.9 174.11 859.001 175.495C856.6 175.755 854.27 175.715 852.032 174.714C848.881 173.305 846.544 170.705 845.393 167.456C843.974 163.452 844.346 158.656 846.382 154.927C848.394 151.241 850.868 149.858 854.754 148.614Z"/><path fill="#FEFEFE" d="M854.993 153.926C856.541 153.918 857.599 153.929 858.882 154.903C860.625 156.226 861.3 158.813 861.337 160.894C861.403 164.71 860.246 167.994 857.558 170.673C855.979 170.5 854.907 170.34 853.717 169.148C852.238 167.666 851.576 165.209 851.537 163.174C851.466 159.496 852.531 156.609 854.993 153.926Z"/><path d="M894.038 148.708C895.277 148.64 895.915 148.394 897.014 149.055C894.128 157.891 890.878 166.579 888.198 175.486L878.863 175.416C877.308 169.24 875.035 163.164 873.008 157.124L870.517 148.999C872.844 148.825 875.191 148.894 877.524 148.902L883.589 168.401C885.797 162.164 887.498 155.747 889.881 149.577C891.137 148.603 892.481 148.82 894.038 148.708Z"/><path d="M828.131 148.612C832.468 148.39 836.161 148.618 839.555 151.675C840.913 152.898 841.845 154.649 841.704 156.517C841.248 162.558 832.348 166.811 827.923 169.958C832.721 169.892 837.523 169.688 842.32 169.542C841.875 171.5 841.236 173.389 840.613 175.295L828.536 175.353L818.903 175.407C818.945 175.246 818.984 175.083 819.029 174.922C819.104 174.653 819.185 174.387 819.261 174.119C821.499 166.241 828.841 165.198 833.364 159.561C834.532 158.105 834.385 156.662 834.143 154.944C831.011 150.621 825.187 157.39 821.002 156.12C820.512 154.948 820.468 154.84 820.718 153.601C822.776 150.83 824.909 149.747 828.131 148.612Z"/><path d="M807.913 148.987C809.662 149.28 810.693 149.25 812.1 150.364C812.952 156.334 812.068 168.608 812.047 175.341C810.159 175.437 808.002 175.784 806.203 175.129C805.248 173.794 805.42 173.233 805.385 171.625L805.406 157.152L800.775 160.205L798.195 156.015C801.628 153.913 804.436 151.004 807.913 148.987Z"/><path fill="#FEFEFE" d="M638.237 72.1618C647.071 74.8316 656.277 80.5952 661.872 87.9872C662.288 96.1505 661.736 104.528 661.579 112.712L660.716 157.757Q658.999 229.548 658.129 301.354L656.561 436.464L656.357 485.198C656.319 492.207 656.882 499.689 656.279 506.645C648.24 502.579 638.122 496.232 633.891 487.915C632.177 484.546 632.112 481.152 632.043 477.442C631.749 461.655 632.245 445.785 632.334 429.991Q632.359 381.133 633.277 332.284L635.351 174.999Q635.566 139.644 636.458 104.3C636.635 96.3286 636.109 78.8929 638.237 72.1618Z"/><path fill="#FEFEFE" d="M727.278 124.465C735.445 127.079 743.49 131.722 751.204 135.508C748.655 138.011 746.222 140.532 744.26 143.531C741.177 148.242 739.459 153.403 738.877 158.996C737.447 172.737 737.794 190.5 737.624 204.582L736.231 270.733L733.568 371.49C733.16 387.999 731.7 404.963 732.565 421.451C732.735 424.695 733.122 428.283 734.426 431.28C735.2 433.059 736.789 435.308 737.055 437.191C737.075 437.331 737.067 437.473 737.073 437.613C727.617 434.374 717.682 427.656 711.968 419.342C708.951 414.953 708.047 411.339 707.718 406.125C707.327 399.918 707.701 393.555 707.832 387.333Q708.186 371.892 708.377 356.448L710.801 230.61L711.975 168.576C712.184 160.696 711.532 151.511 713.088 143.791C714.775 135.421 720.286 128.992 727.278 124.465Z"/><path fill="#FEFEFE" d="M898.688 34.6979C910.584 32.8861 926.599 43.063 935.76 49.7917C914.787 53.2062 893.518 55.2827 872.452 58.1189L678.294 82.824C674.031 83.4215 669.741 83.7959 665.458 84.2112C659.485 76.3828 650.656 72.8567 642.221 68.3262C653.501 64.5594 666.685 63.842 678.474 62.2979Q707.739 58.4156 737.043 54.8521Q817.805 44.2846 898.688 34.6979Z"/><path fill="#FEFEFE" d="M866.262 292.652C871.658 293.436 875.104 295.793 877.907 300.522C888.589 318.547 885.342 363.53 890.756 386.421C895.909 408.21 904.344 423.77 918.215 441.243C910.734 443.956 903.271 446.209 896.847 451.057C896.082 451.682 896.37 451.611 895.549 451.784C894.744 451.955 893.958 451.403 893.303 450.959C887.823 447.247 878.461 437.918 875.712 431.988C872.775 425.654 871.688 417.889 870.243 411.07C868.135 401.122 866.142 391.141 863.509 381.315C859.821 367.553 855.376 353.959 851.37 340.283C849.868 335.157 847.973 329.89 846.916 324.66C845.374 317.031 847.644 308.212 852.016 301.85C855.578 296.667 860.156 293.86 866.262 292.652Z"/><path fill="#FEFEFE" d="M873.695 99.7073C880.315 99.0142 887.672 99.1939 894.258 99.9215C908.187 101.46 916.181 105.856 924.894 116.673C911.079 113.432 872.828 118.725 857.189 120.22L782.12 127.385C773.177 128.136 764.474 128.252 756.273 132.239C748.394 129.4 740.835 125.494 733.289 121.874C748 116.052 764.587 114.274 780.118 111.693C811.116 106.543 842.332 101.883 873.695 99.7073Z"/><path fill="#FEFEFE" d="M789.473 250.033C792.969 251.593 796.414 254.213 799.656 256.282L819.226 268.785C819.128 280.646 818.61 292.551 818.178 304.407C817.883 312.5 817.864 320.727 816.934 328.774L807.75 324.031C797.831 318.984 786.335 314.498 779.717 305.122C773.675 296.564 771.749 285.771 773.533 275.532C775.347 265.116 780.828 256.14 789.473 250.033Z"/><path fill="#FEFEFE" d="M850.658 223.65C850.833 223.611 851.006 223.556 851.184 223.535C855.102 223.076 876.86 239.016 881.31 242.175C864.862 245.189 848.435 249.008 831.9 251.438L831.32 251.566C830.394 251.761 829.131 252.126 828.193 251.898C823.389 250.726 805.746 238.054 800.3 234.465C806.906 231.755 814.356 230.719 821.337 229.341L850.658 223.65Z"/><path fill="#FEFEFE" d="M937.465 441.2C941.483 440.823 945.467 441.285 949.46 441.719Q949.606 453.301 949.97 464.879C942.144 465.145 935.441 466.257 928.993 471.014C928.41 473.2 927.617 475.488 927.503 477.751C927.629 477.855 927.742 477.978 927.881 478.063C930.856 479.876 946.227 474.78 950.501 473.674L950.614 481.921C943.768 482.356 938.097 484.657 932.023 487.682C929.886 488.746 927.708 490.084 925.423 490.746C922.092 483.595 919.861 476.014 916.615 468.821C923.353 464.226 930.277 465.578 936.82 460.953C938.503 459.764 941.229 457.592 941.478 455.4C941.567 454.621 941.124 454.393 940.671 453.829C934.305 451.255 920.668 454.978 913.859 456.526L911.507 447.594C919.783 444.342 928.604 442.018 937.465 441.2Z"/><path fill="#FEFEFE" d="M850.459 272.567C850.612 272.78 850.928 272.944 850.918 273.206C850.908 273.438 844.236 281.729 843.505 282.783Q842.209 284.62 841.146 286.601Q840.084 288.582 839.271 290.678C836.151 298.902 836.245 310.873 836.776 319.614C837.039 323.951 837.782 328.281 837.797 332.625C836.355 332.852 834.701 332.007 833.321 331.517L829.881 330.057C830.051 313.472 830.083 296.577 831.279 280.041C837.197 276.813 844.099 274.77 850.459 272.567Z"/><path fill="#FEFEFE" d="M798.453 239.113C803.678 241.939 817.293 250.2 821.362 254.144C821.838 256.651 820.062 260.326 819.681 263.104C811.694 258.465 803.554 253.819 796.012 248.484L798.453 239.113Z"/><path fill="#FEFEFE" d="M849.063 392.623C850.707 392.51 852.777 392.112 854.233 393.002C854.548 394.19 854.886 394.748 854.518 395.962C852.998 396.543 851.429 397.102 849.959 397.802C847.192 399.119 844.947 401.236 844.028 404.222C842.983 407.614 844.36 412.144 845.916 415.174C844.895 415.313 844.151 414.973 843.278 414.455C840.526 412.825 839.224 409.593 838.349 406.692C838.689 404.726 839.095 402.735 839.869 400.887C841.727 396.446 844.705 394.339 849.063 392.623Z"/><path fill="#FEFEFE" d="M906.231 460.364C907.767 461.904 908.553 464.595 909.404 466.589C908.25 468.027 907.08 469.529 906.769 471.399C906.579 472.548 906.536 472.515 907.217 473.529C908.981 473.713 909.72 473.119 911.3 472.37C912.468 474.476 915.136 478.217 915.081 480.641C915.043 482.329 914.221 482.641 913.064 483.681C912.496 484.204 912.718 483.917 912.302 484.734C912.195 484.945 912.094 485.159 911.99 485.372L911.409 485.385C907.774 478.908 905.061 471.709 902.01 464.926C903.294 463.242 904.695 461.819 906.231 460.364Z"/><path fill="#FEFEFE" d="M917.145 487.165C918.147 487.794 919.292 490.872 919.513 492C919.783 493.375 919.544 494.286 918.793 495.408L916.338 495.679C915.146 494.149 913.202 491.334 913.411 489.353C914.336 487.771 915.454 487.765 917.145 487.165Z"/><path fill="#FEFEFE" d="M851.99 402.338C852.288 403.486 852.331 403.078 852.091 404.141C851.71 405.83 851.09 407.473 851.39 409.23C851.601 410.465 852.305 411.013 853.278 411.643C854.631 411.56 855.929 411.553 857.284 411.6C858.785 412.614 858.849 413.46 859.5 415.117C856.71 415.044 854.665 414.978 852.425 413.168C850.897 411.933 849.798 410.379 849.654 408.373C849.484 405.995 850.473 404.075 851.99 402.338Z"/><path d="M247.107 712.19C247.909 712.113 248.695 712.036 249.501 712.045C255.465 712.106 260.855 714.34 264.989 718.665C269.748 723.645 271.916 730.151 272.9 736.827C274.585 748.255 272.963 761.591 272.717 773.188L270.54 856.89C285.008 864.16 300.147 870.339 314.939 876.926C321.648 879.914 328.715 884.349 335.845 885.961C348.205 888.756 361.858 887.448 374.069 890.753C381.569 892.783 386.537 898.081 390.394 904.518C398.859 904.596 407.463 903.819 415.926 903.439L470.509 900.849C531.752 897.968 593.043 901.782 651.696 920.996C660.115 923.754 704.154 939.399 707.555 946.046C707.404 947.403 707.377 947.536 706.505 948.58C705.491 948.813 705.157 948.905 704.144 948.555C700.814 947.405 697.501 945.387 694.324 943.817Q686.902 940.136 679.273 936.907Q663.801 930.466 647.831 925.379Q631.862 920.292 615.515 916.598C550.299 901.692 496.714 904.762 431.174 908.055L396.381 909.873C390.858 910.177 384.432 909.89 379.102 911.257C377.101 911.77 375.229 912.785 373.888 914.38C371.872 916.779 371.362 920.04 371.795 923.072C372.404 927.327 374.226 929.924 377.573 932.467C393.513 932.953 412.635 931.229 428.832 930.375C460.161 928.723 491.62 927.168 522.996 927.978C577.636 929.389 621.391 938.142 672.219 958.252C677.58 960.374 692.459 965.799 695.582 969.979C696.425 971.107 696.404 971.321 696.146 972.594C694.961 973.442 694.1 973.541 692.661 973.232C687.878 972.205 682.742 968.725 678.303 966.576C674.73 964.847 671.057 963.36 667.373 961.884C570.286 922.985 487.256 933.046 386.762 937.642C385.705 939.211 384.575 940.693 383.174 941.972C379.055 945.731 373.821 949.217 368.304 950.409C360.784 952.034 347.447 950.017 339.523 949.472Q320.118 948.031 300.684 947.061C292.372 955.629 281.838 962.136 271.84 968.537C270.917 969.115 270.003 969.661 269.021 970.134C255.295 976.744 235.893 967.882 222.758 963.08C214.532 965.05 205.793 965.898 197.456 967.518Q159.818 974.911 122.099 981.883L87.8397 988.506C81.9948 989.64 75.3961 991.629 69.4731 991.532C67.9021 991.506 66.2 991.443 65.0482 990.261L65.1696 989.752C66.6895 988.09 68.9533 987.311 71.0957 986.764C76.2353 985.453 81.6532 984.737 86.8746 983.78Q100.737 981.242 114.573 978.562L214.083 959.521C202.657 954.638 191.008 949.957 179.27 945.873C174.06 947.19 166.574 949.784 161.37 947.657C155.654 945.321 152.95 937.248 150.545 931.992C138.197 926.153 116.138 917.692 107.787 906.874C100.543 897.493 98.5741 883.922 100.224 872.447C103.43 850.142 117.653 838.182 134.578 825.429C134.384 823.132 133.539 818.903 134.625 816.864C135.599 815.035 183.889 802.871 189.369 801.644C205.261 808.914 221.076 816.667 236.633 824.63L239.214 837.464C248.271 842.761 257.052 848.595 265.899 854.239L267.976 774.489C268.177 763.506 269.098 752.203 268.61 741.247C268.504 738.873 268.509 736.554 266.563 734.905C264.334 733.017 261.505 732.421 258.653 732.523C247.579 732.921 230.726 737.069 219.247 739.017Q156.902 750.189 94.8344 762.813L75.0384 766.745C72.3998 767.278 69.4615 768.301 66.7951 768.413C65.5755 768.464 65.4653 768.251 64.6012 767.483C64.2363 766.184 64.1154 766.102 64.6252 764.875C65.9663 763.982 67.2158 763.535 68.7709 763.117C76.0936 761.15 83.9582 760.213 91.4177 758.758Q113.275 754.281 135.198 750.135Q178.644 741.273 222.365 733.882C234.034 731.877 245.771 729.566 257.507 728.014C260.015 727.683 262.313 727.581 264.84 727.857C261.844 722.871 258.762 718.955 252.707 717.737C242.894 715.763 216.951 721.667 205.923 723.63Q160.28 731.779 114.752 740.546C98.5509 743.793 82.2544 748.041 65.9655 750.692C64.1569 750.986 62.4701 751.2 60.7184 750.573C60.3009 749.317 60.3405 749.31 60.8064 748.062C61.8115 747.193 62.7278 746.668 64.0146 746.296C70.0267 744.556 76.8098 743.798 82.9924 742.526Q105.554 737.774 128.192 733.398Q163.777 726.345 199.509 720.082C215.312 717.239 231.172 714.177 247.107 712.19Z"/><path fill="#FEFEFE" d="M191.212 884.163C213.357 897.494 237.718 904.744 262.939 909.512Q263.603 911.907 263.981 914.363Q264.36 916.819 264.447 919.302C264.838 928.769 263.078 947.577 256.331 954.883C241.021 957.143 195.721 937.238 182.622 928.389C181.731 913.801 184.063 897.079 191.212 884.163Z"/><path fill="#FEFEFE" d="M131.909 841.761C139.759 845.855 147.423 850.43 154.955 855.083C155.891 878.89 154.521 903.131 154.024 926.96L153.646 927.369C150.404 927.616 136.389 919.584 132.534 917.66L131.909 841.761Z"/><path fill="#FEFEFE" d="M184.949 807.596C185.956 807.396 186.547 807.293 187.546 807.638C190.931 808.808 194.712 811.446 197.884 813.19Q210.538 820.12 223.12 827.18C218.617 828.905 213.254 829.607 208.531 830.717L177.328 838.114C174.461 838.882 171.62 839.381 168.693 839.846C158.983 834.645 144.991 828.067 137.261 820.414C143.635 817.884 150.747 816.569 157.404 814.887Q171.208 811.362 184.949 807.596Z"/><path fill="#FEFEFE" d="M125.865 837.945C126.586 838.673 126.764 840.118 126.863 841.109C127.632 848.889 127.061 857.17 127.149 865.012Q127.575 890.15 127.456 915.291C122.918 912.912 118.722 910.421 114.784 907.124Q114.186 906.512 113.607 905.883C106.785 898.493 104.302 889.139 104.74 879.233C105.516 861.721 113.334 849.49 125.865 837.945Z"/><path fill="#FEFEFE" d="M226.451 858.675C241.18 856.62 255.081 859.222 267.657 867.025C248.076 862.007 217.535 861.538 199.233 871.005C189.058 876.269 184.836 884.959 181.458 895.392C178.621 905.63 178.146 915.537 177.574 926.093C175.143 924.038 172.236 922.385 169.558 920.656C168.999 914.328 169.597 907.731 169.915 901.394C170.41 891.517 170.985 881.651 171.116 871.76C189.991 869.888 207.741 861.416 226.451 858.675Z"/><path fill="#FEFEFE" d="M305.074 899.673C308.553 899.747 313.238 899.3 316.011 901.67C316.822 903.665 316.976 905.719 317.081 907.85C317.337 913.023 317.312 933.743 314.369 936.979C311.701 936.861 309.022 936.601 306.357 936.4C310.076 922.793 310.65 912.777 305.074 899.673Z"/><path fill="#FEFEFE" d="M138.78 828.645C146.526 832.586 153.985 837.16 161.42 841.651C159.805 844.194 158.567 847.161 156.459 849.328L155.355 849.301C146.974 845.694 138.277 840.378 130.685 835.341C133.281 832.866 136.671 831.641 138.78 828.645Z"/><path fill="#FEFEFE" d="M330.06 903.377C331.416 903.391 332.78 903.456 334.118 903.703C335.648 903.985 336.377 904.585 337.216 905.849C337.863 910.907 337.195 933.73 335.913 938.532C333.379 938.766 331.308 938.946 329.105 937.513C327.245 934.74 329.776 908.34 330.06 903.377Z"/><path fill="#FEFEFE" d="M351.251 905.093C352.986 905.086 355.142 905.041 356.748 905.75C357.436 906.053 357.597 906.372 357.747 907.112C358.513 910.88 357.461 937.522 355.827 940.116C353.844 939.969 351.338 939.909 349.645 938.817C349.472 938.121 349.348 937.444 349.326 936.725C349.197 932.479 349.508 906.946 351.251 905.093Z"/><path d="M611.334 583.995C613.034 583.879 615.076 583.793 616.547 584.833C617.928 585.81 618.114 587.387 618.195 588.941C618.826 600.903 617.743 613.439 617.498 625.444L615.576 706.444L614.437 761.085C614.253 770.39 614.804 780.436 613.547 789.615C613.411 790.61 613.306 792.093 612.533 792.808C611.553 793.716 610.606 793.949 609.314 794.012C598.017 794.564 586.336 793.637 575.004 793.449L500.26 791.827L315.379 786.906C313.253 786.814 311.113 786.633 309.32 785.359C308.606 784.851 308.027 784.016 307.962 783.129C307.863 781.777 308.482 780.525 309.407 779.57C310.856 778.074 313.044 777.29 315.099 777.252C323.122 777.102 331.404 777.981 339.449 778.22L391.94 779.494Q498.135 782.5 604.359 784.176L607.521 652.224L608.412 609.447C608.566 602.322 608.261 594.812 609.096 587.753C609.287 586.145 610.267 585.117 611.334 583.995Z"/><path d="M569.826 259.585C574.069 261.451 609.421 275.437 610.123 276.016C610.803 276.577 610.628 276.648 610.709 277.466C608.366 280.06 575.835 290.748 569.453 292.96L569.862 286.269L569.926 280.022L538.799 279.925C534.578 279.915 529.645 280.521 525.505 279.868C524.301 279.678 523.597 279.287 522.731 278.454C522.409 277.058 522.4 276.904 522.891 275.562C524.361 274.269 525.697 273.863 527.642 273.647C532.764 273.076 538.279 273.767 543.438 273.856C552.373 274.011 561.34 273.848 570.278 273.836C570.205 269.125 569.341 264.269 569.826 259.585Z"/><path d="M489.148 687.774C490.643 688.023 491.496 688.188 492.786 689.056C494.549 692.446 493.676 720.21 493.667 726.114C496.44 725.69 501.409 724.397 504.018 725.244C505.274 725.652 505.387 725.791 505.93 726.894C504.882 730.902 502.619 734.77 500.93 738.567Q495.887 750.169 490.609 761.666C489.293 761.386 488.721 761.111 487.983 759.864C485.452 755.588 474.141 728.089 475.01 724.715C478.393 723.546 483.645 725.098 487.108 725.711C487.297 718.063 485.83 693.026 489.148 687.774Z"/><path d="M365.435 828.59C367.582 828.394 369.95 828.018 372.038 828.693C374.976 829.643 377.358 831.892 378.732 834.626C380.686 838.514 380.994 843.43 379.591 847.545C378.294 851.351 375.901 853.795 372.311 855.468C369.887 856.099 367.458 856.244 365.104 855.282C362.191 854.09 360.091 851.737 358.895 848.859C357.1 844.535 357.145 838.909 358.986 834.61C360.383 831.348 362.227 829.927 365.435 828.59Z"/><path fill="#FEFEFE" d="M367.387 832.747C367.625 832.779 367.865 832.801 368.102 832.843C369.922 833.161 371.183 833.934 372.193 835.473C373.946 838.143 374.215 841.532 373.636 844.601C373.111 847.389 372.314 848.668 370.005 850.288C368.448 850.215 367.083 850.002 365.928 848.85C364.297 847.224 363.771 844.549 363.809 842.329C363.871 838.653 364.776 835.359 367.387 832.747Z"/><path d="M342.442 828.173C344.788 828.257 346.814 828.564 348.993 829.422C350.809 830.137 352.506 831.09 353.114 833.106C353.969 835.939 351.957 838.702 350.528 840.968C351.019 842.691 353.424 843.204 354.389 844.843C355.151 846.138 355.337 848.464 355.056 849.914C354.75 851.495 353.8 852.76 352.461 853.637C348.992 855.908 343.765 856.305 339.814 855.362C337.379 854.78 333.608 853.492 332.344 851.127C331.942 850.375 332.222 850.122 332.445 849.369C333.652 848.206 334.678 848.011 336.299 847.652L336.924 847.519C337.26 847.779 337.603 848.031 337.933 848.299C339.048 849.208 339.851 849.886 341.245 850.383C343.049 851.027 344.751 851.463 346.561 850.646C347.648 849.586 347.718 848.878 348.001 847.446C347.061 844.031 343.015 845.054 340.451 843.215C339.679 842.052 339.665 841.123 339.589 839.781C341.063 838.604 344.113 839.157 346.082 838.273C346.777 837.188 346.873 836.882 346.515 835.531C346.159 834.186 345.312 833.522 344.217 832.811C341.963 832.827 340.893 833.768 339.35 835.297C338.778 835.864 338.296 836.404 337.622 836.854C337.066 837.225 335.583 837.037 334.967 836.802C333.672 836.309 333.431 835.848 332.814 834.717C332.846 833.789 332.86 833.101 333.387 832.289C335.336 829.284 339.192 828.67 342.442 828.173Z"/><path d="M315.655 828.569L316.44 828.51C319.907 828.264 325.613 828.512 328.165 831.187C329.463 832.547 329.817 834.012 329.669 835.846C329.134 842.461 322.65 846.869 317.913 850.706C321.357 850.54 327.457 849.501 330.273 851.595C330.621 852.87 330.53 852.985 330.076 854.244C326.969 857.046 319.894 855.909 315.933 855.852C313.429 855.969 311.017 856.381 308.796 855.004C306.638 850.097 321.79 843.403 322.926 837.772C323.163 836.597 322.833 835.618 322.033 834.739C318.298 830.633 314.068 838.251 309.824 837.692C309.107 837.093 308.7 836.766 308.344 835.87C308.008 835.026 308.231 834.493 308.664 833.693C310.008 831.205 313.106 829.439 315.655 828.569Z"/><path d="M402.804 828.478L409.595 828.507Q408.308 831.93 406.961 835.33C404.355 841.916 402.103 848.694 399.716 855.365L391.403 855.343C388.579 846.417 383.812 837.888 381.906 828.712L388.572 828.532Q391.591 838.274 395.567 847.667C398.507 841.504 400.53 834.91 402.804 828.478Z"/></svg>