<svg xmlns="http://www.w3.org/2000/svg" xmlns:xlink="http://www.w3.org/1999/xlink" width="1024" height="1024"><path fill="#FEFEFE" d="M0 0L1024 0L1024 724.305L1024 731.489L1024 1024L0 1024L0 0Z"/><path fill="#010101" d="M461.254 294.945Q463.182 293.764 464.982 292.394C474.188 285.526 490.737 266.979 493.074 255.563C493.994 251.066 492.919 246.257 493.714 241.729C493.987 240.175 494.431 239.058 495.761 238.116C496.607 238.209 497.162 238.359 497.969 238.686C498.236 238.794 498.499 238.913 498.764 239.027C499.169 238.167 499.132 238.456 499.211 237.686C499.345 236.385 499.327 235.782 500.219 234.716C501.457 234.121 502.374 233.984 503.721 234.329C506.609 235.068 503.476 239.852 504.598 242.238C505.299 239.927 505.479 237.433 505.794 235.042L506.475 234.618C509.13 234.692 513.173 234.654 515.33 236.392C516.409 237.262 516.855 238.487 516.943 239.83C517.291 245.144 513.765 251.791 511.6 256.501C500.817 279.965 494.13 289.696 477.134 308.673C477.455 310.308 477.712 311.96 477.992 313.602C471.528 320.552 463.06 326.638 455.394 332.217C457.054 352.347 454.932 374.346 451.389 394.195C450.372 399.894 448.294 405.361 447.368 411.066C441.765 445.592 436.207 480.482 424.799 513.676C429.08 515.015 433.7 515.738 438.081 516.78C451.752 520.032 467.525 523.748 479.706 530.87C484.272 533.54 489.941 538.063 491.186 543.405C492.61 549.512 488.174 555.861 485.904 561.33C476.058 585.058 464.238 607.361 450.386 629.013C444.8 637.746 438.156 645.789 432.817 654.667C439.21 654.369 444.861 655.485 450.218 659.155C464.53 668.962 465.046 687.284 467.659 702.698C479.85 694.347 493.593 685.278 508.344 682.66C523.43 679.982 536.573 683.913 548.98 692.516C557.087 685.381 564.527 677.492 572.054 669.761C591.868 649.412 610.867 628.118 627.036 604.716C640.794 584.805 650.755 562.632 662.701 541.614C667.352 533.43 701.076 478.027 705.59 475.663C706.671 475.096 706.859 475.194 707.971 475.502C713.474 480.467 716.745 494.436 719.646 501.569C720.626 499.906 721.733 497.635 723.221 496.365C724.415 495.347 725.678 495 727.231 495.26C731.999 496.059 733.81 503.233 734.318 507.203C735.546 516.803 733.674 527.872 733.032 537.576C732.17 550.609 731.809 563.466 732.313 576.519C732.449 580.022 732.102 586.239 734.491 588.946C735.037 589.565 735.418 589.43 736.18 589.523C745.754 584.569 751.703 541.78 755.608 530.197C756.406 527.832 757.649 524.1 760.211 523.172C762.643 522.292 765.228 524.117 767.192 525.313C769.141 521.548 771.579 511.785 774.362 509.336C775.339 508.476 776.389 508.132 777.701 508.316C779.704 508.598 781.765 511.391 783.09 512.81C785.94 503.757 787.704 492.548 793.095 484.637C794.093 483.174 795.643 481.417 797.534 481.26C801.144 480.961 805.584 484.85 808.465 486.821C810.125 484.734 811.815 483.059 814.577 482.668C816.944 482.333 819.45 483.417 820.948 485.26C826.952 492.648 834.712 515.352 838.784 525.021Q845.832 542.223 854.581 558.625C880.315 607.041 949.523 686.646 993.882 718.46C1004.83 718.426 1013.74 720.742 1024 724.305L1024 731.489C1016.05 727.999 1007.94 724.604 999.076 724.827C992.499 724.993 986.179 727.283 981.699 732.213C980.187 733.877 978.809 735.892 977.171 737.407C976.09 738.407 975.347 738.418 973.943 738.393C971.737 734.597 971.641 727.03 970.243 722.354C967.513 713.226 961.429 704.847 952.959 700.305C944.803 695.931 935.583 695.713 926.857 698.443C914.052 702.449 902.73 711.303 896.739 723.394C895.144 726.613 894.388 730.917 892.504 733.834C891.707 735.068 890.939 735.277 889.59 735.673C886.167 735.117 881.504 725.743 879.025 722.929Q877.178 720.813 875.019 719.017Q872.86 717.22 870.444 715.789C864.401 712.253 857.77 711.116 850.959 713.057C838.92 716.488 831.268 728.543 827.866 739.971C826.732 743.778 826.232 748.473 824.264 751.893C822.461 751.652 820.967 750.781 819.35 750.005C813.338 747.119 808.121 745.071 801.281 745.476C793.859 745.916 786.957 748.79 781.958 754.432C775.756 761.433 772.567 771.948 773.686 781.239C774.071 784.43 775.211 787.879 775.256 791.056C775.275 792.45 774.954 792.575 774.051 793.557C770.205 794.547 764.785 787.057 759.046 786.944C754.062 786.846 745.236 794.172 741.999 793.347C740.641 791.03 740.276 788.192 739.604 785.611C737.484 777.473 731.768 770.197 724.475 766.036C707.319 756.248 683.354 762.801 669.446 775.4C667.883 776.816 666.255 778.29 664.93 779.933C662.991 782.337 660.032 788.633 657 789.453C656.66 789.306 656.246 789.272 655.982 789.013C654.835 787.886 654.314 783.58 653.837 781.978Q653.426 780.622 652.896 779.309Q652.367 777.995 651.723 776.733Q651.079 775.471 650.326 774.272Q649.573 773.072 648.716 771.944C643.169 764.657 634.656 760.363 625.651 759.223C610.815 757.345 595.536 763.863 586.203 775.474C583.562 778.761 581.51 783.382 578.2 785.963C577.054 786.208 576.517 786.179 575.529 785.465C573.51 784.006 571.671 782.063 569.752 780.449Q567.813 778.811 565.703 777.401Q563.593 775.992 561.337 774.828Q559.082 773.664 556.711 772.76Q554.339 771.857 551.881 771.225Q551.068 771.008 550.246 770.824Q549.425 770.64 548.597 770.489Q547.769 770.338 546.935 770.22Q546.101 770.102 545.264 770.018Q544.426 769.934 543.586 769.884Q542.746 769.833 541.904 769.817Q541.062 769.8 540.221 769.817Q539.379 769.834 538.539 769.885Q537.699 769.936 536.861 770.021Q536.023 770.105 535.19 770.224Q534.356 770.342 533.528 770.493Q532.7 770.645 531.879 770.829Q531.058 771.014 530.245 771.232Q529.431 771.449 528.627 771.699Q527.824 771.949 527.03 772.231Q526.237 772.513 525.456 772.827Q524.675 773.141 523.907 773.485Q523.139 773.83 522.385 774.205Q521.632 774.581 520.894 774.986Q520.156 775.391 519.435 775.826Q518.714 776.26 518.011 776.724Q517.309 777.187 516.625 777.678Q515.941 778.169 515.277 778.687Q514.614 779.205 513.972 779.749Q513.33 780.294 512.71 780.863Q512.09 781.433 511.494 782.027Q510.897 782.621 510.325 783.239Q509.753 783.856 509.206 784.496Q508.659 785.136 508.139 785.798Q507.618 786.459 507.124 787.141Q506.63 787.823 506.164 788.524Q505.698 789.225 505.261 789.944C503.173 793.414 501.921 801.551 498.651 803.502C494.14 802.575 491.783 792.442 483.465 790.437C473.72 788.087 466.413 795.856 458.705 800.282C457.798 800.802 456.814 801.734 455.756 801.253C454.484 800.673 454.146 800.201 453.694 798.991C454.407 796.622 457.098 794.637 458.654 792.682C458.947 790.984 458.507 789.525 457.634 788.006C453.649 781.07 447.792 790.106 443.164 788.739C442.983 788.303 442.653 787.903 442.62 787.433C442.505 785.818 444.491 782.372 445.179 780.788C447.28 775.947 449.138 771.084 449.952 765.833C451.364 756.722 447.481 746.905 442.299 739.609C431.939 725.024 414.097 712.675 396.343 709.673Q376.082 743.769 358.254 779.198Q340.426 814.626 325.119 851.215Q316.959 870.871 309.925 890.957C307.643 897.516 305.545 907.741 302.258 913.579C301.442 915.028 300.746 915.706 299.149 916.13C298.508 915.755 298.223 915.752 297.93 915.003C295.842 909.655 306.049 884.766 308.479 878.358Q317.703 854.25 328.015 830.587Q338.328 806.924 349.708 783.755Q361.088 760.587 373.511 737.961Q385.935 715.335 399.376 693.298C413.171 671.137 429.437 650.499 443.766 628.682C457.95 607.088 470.033 583.642 480.209 559.933C471.934 563.182 463.393 564.916 454.55 565.604C450.923 574.038 421.368 629.441 415.936 633.509C414.663 634.463 413.671 634.668 412.122 634.504L411.493 633.718C411.348 632.315 411.65 631.172 412.303 629.935C415.449 623.972 419.52 618.306 422.921 612.459C431.73 597.318 440.473 581.975 448.448 566.381C434.722 567.011 421.213 567.041 407.483 566.583C400.379 578.498 394.194 591.186 387.572 603.388C379.056 619.08 370.09 634.49 361.32 650.034C355.883 659.67 347.435 675.975 340.768 684.405C339.904 685.497 339.286 685.553 337.965 685.633C336.828 684.977 336.638 684.949 336.093 683.778C336.247 682.059 336.768 680.753 337.607 679.244C341.207 672.775 345.512 666.572 349.237 660.142C367.069 629.371 385.379 598.253 400.827 566.217C377.349 564.554 350.858 559.252 327.708 561.858C314.282 563.369 301.438 567.607 288.38 570.86Q280.779 572.756 273.058 574.077Q265.337 575.397 257.538 576.135Q249.739 576.873 241.907 577.024Q234.075 577.175 226.254 576.738C180.992 574.49 143.477 555.026 100.766 543.648Q92.9913 541.585 85.0751 540.157Q77.159 538.73 69.1533 537.948C64.8059 537.56 60.2128 538.226 55.9279 537.487C54.5123 537.243 54.285 537.258 53.4713 536.107C53.4273 534.723 53.2858 534.319 53.9929 533.156C57.6483 531.039 63.1699 531.855 67.2398 532.115C104.862 534.525 139.899 551.27 175.542 562.078C213.368 573.548 251.658 574.459 290.041 565.063C306.015 561.152 320.9 555.796 337.576 555.459C352.907 555.149 367.472 557.784 382.601 559.512C408.079 562.422 435.581 563.421 460.939 559.037C467.58 557.889 480.003 555.557 483.964 549.412C485.054 547.72 485.231 545.748 484.671 543.834C483.453 539.666 477.113 536.168 473.43 534.269C466.176 530.532 428.826 518.459 422.865 520.391C421.399 523.119 432.518 529.558 433.21 533.909C433.453 535.443 433.2 535.787 432.454 537.058C430.31 538.451 428.229 538.561 425.714 538.39C419.903 537.998 407.211 535.742 403.349 531.137C402.058 526.417 403.86 520.49 404.704 515.741C399.671 513.99 392.07 511.395 386.784 511.591C385.072 511.655 384.188 512.138 383.009 513.331C381.828 517.453 385.7 522.756 386.67 526.868C387.036 528.418 387.113 529.506 386.248 530.92C384.898 531.91 383.547 532.232 381.891 531.928C377.095 531.046 365.212 517.552 362.714 513.131C363.696 511.011 364.928 508.97 366.054 506.921C338.59 500.544 307.525 499.882 279.38 499.755C278.889 502.023 278.174 504.229 277.499 506.448C282.528 507.921 289.6 510.115 292.512 514.764C293.407 516.193 293.478 517.142 293.137 518.758C291.946 520.132 290.897 520.57 289.134 520.853C284.093 521.663 267.407 521.302 263.322 518.275C261.231 513.144 260.64 504.33 260.321 498.699C244.82 497.58 227.024 498.842 211.252 499.022C208.224 502.186 205.368 504.763 201.583 507.008C204.303 511.82 207.305 517.036 207.607 522.688C207.696 524.365 207.54 525.285 206.365 526.573C205.146 527.162 204.18 527.276 202.867 526.956C195.345 525.124 185.891 514.405 182.075 507.982C183.635 503.421 185.918 499.013 187.875 494.603C180.408 493.217 172.556 492.85 164.982 492.123C135.631 489.306 107.542 488.83 78.1551 491.946Q65.0223 493.368 51.9471 495.249C47.0924 495.971 38.8177 498.771 34.2823 498.121C32.8957 497.922 32.5123 497.552 31.6675 496.484C31.7062 495.045 31.7426 494.85 32.527 493.648C37.7495 490.965 46.0865 490.472 51.9043 489.539C89.5121 483.508 126.516 483.012 164.388 486.538C172.971 487.337 181.737 487.815 190.231 489.238C197.841 478.296 211.447 464.762 215.646 452.775C219.934 440.53 204.105 411.02 198.387 399.156C196.424 398.612 193.184 398.003 191.693 396.524C190.125 394.968 190.147 392.951 190.2 390.877C190.321 386.166 191.519 381.38 192.361 376.75C194.087 367.264 195.66 357.975 195.428 348.287C191.101 345.797 186.988 342.986 182.846 340.205C174.39 340.381 169.15 338.661 162.557 333.307C158.114 329.699 148.787 320.496 148.785 314.444C148.784 310.499 157.036 304.711 159.82 301.91L138.885 273.021C133.717 265.791 126.87 258.037 124.139 249.467C123.413 247.189 122.907 244.073 124.419 241.974C125.398 240.613 126.582 240.445 128.145 240.229C128.344 240.202 128.544 240.182 128.744 240.158L130.569 237.324C131.904 236.496 132.932 236.326 134.438 236.7C137.831 237.542 141.005 240.279 142.86 243.161C143.247 243.762 142.957 243.513 143.668 243.829C144.689 242.999 145.465 242.192 146.845 242.117C154.106 245.294 150.337 256.853 152.699 262.891C155.329 269.616 165.885 280.897 170.948 286.743C174.668 281.719 178.92 277.072 184.331 273.843C191.003 269.861 198.326 268.671 205.89 270.623C210.226 267.195 214.475 263.268 219.36 260.643C224.38 257.945 231.258 255.927 236.811 257.816C240.11 258.938 243.669 261.951 245.041 265.193C246.299 268.167 245.602 270.715 244.399 273.559C246.035 279.304 248.156 285.421 248.536 291.39C250.651 292.95 252.33 294.444 254.086 296.414C253.853 299.461 253.454 302.514 253.136 305.554C269.691 301.074 284.952 284.736 291.994 269.495C294.559 263.944 297.412 248.082 301.952 245.188C303.821 245.272 304.252 246.107 305.589 247.372C307.202 245.534 308.937 243.562 311.088 242.339C312.405 241.591 313.895 241.094 315.384 241.681C317.199 242.395 317.94 244.108 318.67 245.763L318.894 246.283C319.4 246.568 320.289 246.979 320.734 247.397C321.668 248.276 321.791 249.364 321.758 250.593C321.581 257.196 314.888 263.392 310.289 267.367C304.518 288.698 289.157 307.253 271.028 319.533C271.878 322.85 273.133 326.18 273.597 329.575C273.955 332.196 273.798 335.067 272.088 337.215C268.545 341.665 258.871 342.118 253.621 342.832Q253.5 344.442 253.306 346.044C252.343 353.758 249.8 358.904 243.668 363.732C249.785 374.474 255.919 385.56 261.221 396.729C263.01 400.497 264.237 404.486 265.981 408.258C268.275 413.223 271.125 417.913 273.326 422.932C284.003 447.285 285.318 467.973 280.294 493.906C309.313 494.594 340.941 494.586 369.104 501.767C378.358 481.155 391.306 450.58 393.823 428.287C394.361 423.527 393.54 418.537 393.448 413.752C393.287 405.444 394.508 397.118 396.407 389.047C397.913 382.65 407.564 363.732 406.179 359.301L405.689 359.963L405.362 359.482L405.248 360.163C401.33 365.105 397.59 370.43 393.174 374.925C383.374 384.903 367.754 394.227 354.128 397.496C348.556 398.833 340.853 400.052 335.803 396.719C334.037 395.554 332.209 393.377 331.92 391.208C331.33 386.778 334.889 383.779 338.574 382.131C342.661 380.303 347.654 380.412 351.981 379.082C366.905 374.495 376.722 363.558 385.795 351.543C383.641 349.416 381.219 347.076 380.697 343.949C379.943 339.436 383.699 335.267 386.138 331.843C377.21 324.343 364.23 325.49 356.173 316.853Q355.858 316.511 355.561 316.153Q355.264 315.795 354.986 315.423Q354.707 315.051 354.447 314.666Q354.188 314.28 353.948 313.882Q353.707 313.484 353.488 313.074Q353.268 312.664 353.069 312.244Q352.87 311.824 352.692 311.394Q352.515 310.965 352.359 310.527Q352.203 310.089 352.069 309.643Q351.936 309.198 351.824 308.747Q351.713 308.295 351.625 307.839Q351.536 307.382 351.471 306.922Q351.405 306.462 351.363 305.999Q351.321 305.536 351.302 305.071Q351.283 304.607 351.287 304.142Q351.291 303.677 351.319 303.213C352.341 283.628 378.864 286.997 390.052 279.52C397.406 274.606 400.199 265.927 406.695 260.285C413.044 254.772 422.791 252.575 431.011 253.075C439.368 253.583 446.739 257.207 452.272 263.475C459.986 272.215 461.918 283.669 461.254 294.945Z"/><path fill="#FEFEFE" d="M705.856 484.297C710.336 488.28 711.554 505.094 717.465 508.333C721.922 510.775 723.793 503.693 727.191 502.669C729.067 504.142 728.99 507.995 729.008 510.215C729.058 516.551 728.262 522.975 727.744 529.285C726.156 548.627 723.728 570.135 727.833 589.259C728.377 591.793 729.363 594.801 731.756 596.172C733.41 597.12 735.327 597.383 737.149 596.797C749.514 592.821 755.842 555.091 758.414 543.645C759.406 539.23 760.065 533.834 762.22 529.864C764.581 529.29 765.667 532.265 768.009 531.45C772.546 529.871 775.835 519.753 777.61 515.583C779.525 517.14 781.893 518.894 784.537 518.327C786.629 517.879 788.173 516.037 789.095 514.224C790.671 511.122 791.173 507.163 792.104 503.796C793.687 498.073 795.677 492.515 798.461 487.265C801.744 489.302 806.202 492.931 810.295 492.457C813.185 492.123 814.482 490.033 816.052 487.89C822.754 498.361 826.708 511.491 831.224 523.085C834.498 531.49 838.17 539.69 841.974 547.867C846.831 558.308 859.911 579.209 861.369 589.237C861.616 590.938 861.46 591.915 860.463 593.301C855.827 592.351 837.31 546.878 826.042 538.023C824.505 536.815 823.331 536.34 821.385 536.57C812.246 543.497 828.456 573.973 826.309 579.612C823.376 578.852 820.279 570.716 818.276 568.076C816.802 566.133 815.333 564.845 812.897 564.459C811.62 564.787 810.805 565.182 810.103 566.373C806.947 571.726 812.383 587.997 813.845 593.783C815.204 599.162 822.653 625.532 820.713 628.769C816.486 626.676 812.296 613.897 808.108 609.889C806.979 608.808 806.544 608.942 805.047 608.879C801.783 610.751 804.532 615.277 802.206 617.532C797.309 614.181 795.09 586.301 786.623 580.648C785.766 580.56 785.312 580.32 784.543 580.817C780.995 583.108 779.778 592.094 778.815 596.099C778.439 592.363 778.267 588.276 777.13 584.684C776.525 582.773 775.34 580.24 773.278 579.538C772.095 579.135 771.228 579.342 770.198 579.973C764.55 583.435 759.998 609.004 758.582 616.096C754.889 636.033 752.241 655.994 747.785 675.812C746.201 682.855 744.764 690.193 742.029 696.895C741.361 698.532 740.415 700.496 738.709 701.206C734.311 697.632 742.365 661.223 737.831 651.713C737.045 650.064 735.737 648.621 733.89 648.204C721.51 645.412 710.881 697.158 702.471 701.745C701.35 700.85 701.438 699.57 701.493 698.195C702.012 685.232 720.888 613.589 717.27 607.17C716.567 605.921 716.24 605.894 714.95 605.581C711.724 606.71 708.784 613.751 706.519 616.496C706.394 616.648 706.265 616.797 706.138 616.948C706.151 616.783 706.166 616.619 706.175 616.455C706.895 603.214 712.645 590.765 712.615 577.244C712.607 573.583 712.987 566.008 710.046 563.376C709.094 562.525 707.822 562.293 706.573 562.433C704.776 562.635 703.327 563.573 702.104 564.872C696.747 570.56 692.513 578.714 688.238 585.293C677.701 601.509 667.809 617.919 658.052 634.609C651.562 645.71 645.647 657.491 637.869 667.768C636.656 669.371 635.583 671.164 633.502 671.448L632.7 670.674C631.656 665.298 651.199 627.708 654.769 618.759C657.018 613.123 666.638 590.069 663.862 585.306C663.103 584.003 662.531 583.833 661.205 583.342C655.466 584.135 650.473 592.574 646.863 596.723C645.234 598.595 642.994 601.07 640.378 601.25L639.872 600.485C639.71 594.378 650.537 577.047 653.904 570.976C658.627 562.46 662.922 553.729 667.834 545.312C679.909 524.62 693.044 504.535 705.856 484.297Z"/><path fill="#FEFEFE" d="M434.102 660.571C435.696 660.46 437.218 660.433 438.805 660.659C464.272 664.274 458.029 703.892 463.716 710.15C465.045 711.612 469.035 708.896 470.29 708.086C485.545 698.233 499.007 687.827 518.08 687.52C527.256 687.372 538.079 690.574 544.811 697.045C534.426 707.436 522.216 716.64 510.245 725.109Q494.408 736.772 478.349 748.128C470.308 747.557 462.576 748.633 454.681 749.958C453.102 746.485 451.513 743.039 449.488 739.798C439.027 723.052 419.019 708.562 399.768 704.226C408.151 689.849 417.883 676.043 427.413 662.402L434.102 660.571Z"/><path fill="#FEFEFE" d="M257.066 309.249C258.256 309.54 258.535 309.543 259.294 310.573C262.916 315.484 268.591 327.483 267.651 333.804C265.592 336.186 256.073 336.967 252.905 337.562C251.562 336.026 250.912 335.306 248.894 334.967C248.083 335.341 247.701 335.286 247.334 336.169C246.28 338.7 247.247 340.77 248.143 343.164C247.311 348.249 245.298 354.948 241.82 358.863C239.758 359.202 239.675 356.589 237.445 356.633C236.115 356.659 235.884 357.221 235.247 358.2C234.871 363.74 243.466 375.901 246.109 381.543C233.833 388.377 214.35 395.016 200.165 393.957C198.173 393.808 197.135 393.33 195.867 391.797C195.517 387.858 200.11 365.539 200.94 359.617C201.444 355.9 201.543 352.127 201.725 348.383C202.152 348.072 202.583 347.766 202.991 347.43C204.869 345.887 206.989 342.354 206.888 339.879C206.844 338.797 206.309 338.079 205.381 337.559C204.282 336.944 203.127 337.111 202.002 337.435C200.828 338.772 201.495 340.504 200.613 341.96C200.346 342.4 200.299 342.401 199.763 342.452C195.041 342.897 183.375 332.691 179.439 329.534C185.267 324.828 189.841 317.459 193.052 310.785C196.63 314.016 199.953 317.468 202.913 321.274C202.911 323.17 202.973 325.026 203.138 326.914C203.821 328.162 204.604 328.753 205.716 329.575C209.508 329.373 208.11 324.542 210.86 322.771C214.319 324.187 215.307 332.806 222.698 337.164C226.195 339.226 230.929 340.669 234.964 339.503C237.304 338.826 239.275 337.371 240.44 335.216C242.926 330.618 241.469 325.081 240.224 320.354C247.214 318.178 251.618 313.827 257.066 309.249Z"/><path fill="#FEFEFE" d="M459.734 299.998C463.727 304.062 467.641 308.111 471.733 312.102C465.252 318.507 457.108 324.286 449.456 329.154C450.917 349.578 448.963 369.758 446.185 389.983C432.089 392.492 416.36 392.933 403.196 386.582C405.468 379.885 408.468 373.459 410.731 366.741C412.301 361.522 413.324 355.801 413.737 350.367C413.925 347.895 414.09 345.661 412.423 343.702L411.194 343.663C407.16 345.643 407.51 350.209 404.96 353.399C404.398 354.101 403.493 354.688 402.578 354.693C398.53 354.715 389.084 345.332 386.075 342.252C387.314 339.532 388.982 337.034 390.555 334.499C396.906 338.088 404.262 340.945 411.691 340.165Q412.53 340.075 413.361 339.927Q414.191 339.779 415.01 339.574Q415.828 339.369 416.631 339.108Q417.433 338.847 418.216 338.532Q418.999 338.216 419.757 337.847Q420.516 337.478 421.248 337.058Q421.98 336.638 422.681 336.168Q423.382 335.699 424.049 335.182C431.033 329.749 431.574 322.185 437.006 317.016C439.075 315.048 441.756 313.775 444.241 312.421C450.509 309.004 455.283 305.621 459.734 299.998Z"/><path fill="#FEFEFE" d="M401.376 392.613C415.672 398.118 429.027 398.598 444.154 396.487C440.447 408.298 439.86 421.917 437.72 434.146C433.044 460.857 427.538 487.222 419.263 513.071L417.041 518.37L410.953 515.274C416.143 487.251 422.283 459.631 422.133 430.967C422.11 426.611 422.35 421.869 421.685 417.562C421.438 415.965 421.167 414.521 419.824 413.498L418.715 413.692C416.057 416.185 416.202 418.403 415.882 421.832Q407.533 418.522 398.81 416.385C398.864 408.358 399.837 400.481 401.376 392.613Z"/><path fill="#FEFEFE" d="M248.625 386.944L249.024 387.057C252.567 390.822 255.085 397.839 257.308 402.601L255.341 403.939C252.036 406.167 244.392 411.867 240.332 410.857C239.323 410.606 238.569 410.476 237.528 410.375C236.486 410.841 235.901 411.115 235.451 412.279C235.012 413.418 237.486 429.198 237.439 432.728C237.251 446.852 230.77 460.839 223.671 472.791C220.012 478.95 208.557 496.957 201.841 498.682C198.397 498.281 196.911 495.473 194.899 492.956C194.576 492.162 194.492 492.49 194.923 491.928C203.842 480.305 215.948 468.592 221.155 454.752C226.664 440.109 211.178 413.208 204.976 399.426C220.387 397.929 235.154 394.854 248.625 386.944Z"/><path fill="#FEFEFE" d="M468.792 754.212C487.523 753.468 505.018 757.738 518.97 770.565C509.221 776.648 502.226 782.82 497.109 793.217C494.248 789.939 491.061 787.193 486.888 785.727C478.818 782.892 471.432 785.974 464.152 789.312C463.447 787.335 462.179 783.903 460.75 782.38C458.436 779.914 455.039 779.764 451.88 779.795C455.148 772.421 456.268 763.854 455.948 755.855C460.231 755.009 464.436 754.491 468.792 754.212Z"/><path fill="#FEFEFE" d="M243.604 428.767C244.331 429.192 244.903 429.602 245.481 430.223C260.399 446.273 260.713 472.154 260.073 492.575C251.474 492.83 242.853 492.784 234.25 492.847L216.655 493.002C227.147 478.867 237.793 462.483 241.642 445.125C242.837 439.734 243.198 434.259 243.604 428.767Z"/><path fill="#FEFEFE" d="M258.841 408.65C259.346 409.123 259.156 408.898 259.621 409.594C263.2 414.951 265.742 420.989 268.245 426.903C279.58 453.688 278.535 474.428 273.18 502.218C270.976 502.452 268.173 503.198 266.368 501.744L266.272 500.125C266.823 477.102 267.243 455.267 255.775 434.471C252.362 428.281 247.364 423.053 244.114 416.773C244.014 416.581 243.921 416.387 243.824 416.194C249.408 414.282 253.911 411.898 258.841 408.65Z"/><path fill="#FEFEFE" d="M400.075 423.331C404.229 424.24 408.255 425.306 412.308 426.589C404.921 453.445 395.419 478.472 382.467 503.145C381.899 504.289 381.355 505.172 380.54 506.173C378.556 506.567 376.357 504.93 374.554 504.033C376.883 498.255 379.645 492.653 381.969 486.87C390.546 465.527 396.487 446.037 400.075 423.331Z"/><path fill="#FEFEFE" d="M415.774 436.375C415.332 461.445 410.863 485.453 406.028 509.993C401.663 508.655 397.358 507.482 392.885 506.558L387.627 505.424Q393.564 494.698 398.621 483.529Q403.677 472.36 407.821 460.822C410.634 452.828 412.364 444.096 415.774 436.375Z"/><path fill="#FEFEFE" d="M390.875 354.91C393.303 356.653 395.78 358.247 398.325 359.813C384.309 376.134 368.426 389.963 346.121 392.318C344.014 392.479 341.305 392.749 339.499 391.401C338.725 390.823 338.891 390.753 338.724 389.881C338.927 389.499 339.045 389.057 339.333 388.735C340.194 387.774 351.417 385.537 353.579 384.832C369.859 379.521 380.799 368.171 390.875 354.91Z"/><path fill="#FEFEFE" d="M144.732 253.36C144.887 253.533 147.201 265.612 149.141 268.862C156.622 281.4 175.616 300.308 186.234 311.097C185.149 312.974 184.077 315.551 182.218 316.708L181.204 316.141C166.367 301.762 156.855 288.543 145.561 271.452C143.092 267.716 138.773 262.788 138.301 258.287C139.314 257.301 140.809 257.467 142.193 257.304C143.507 256.318 144.039 254.801 144.732 253.36Z"/><path fill="#FEFEFE" d="M302.014 255.653C301.958 257.448 302.042 258.712 302.623 260.418C303.195 260.944 303.448 261.477 304.285 261.447C306.973 261.35 309.402 258.312 311.198 256.544C309.45 259.285 307.171 261.628 305.713 264.561C303.609 268.794 302.607 273.539 300.525 277.826C294.454 290.322 284.599 300.983 274.175 309.988C272.315 311.555 270.366 312.897 268.349 314.246C266.778 312.284 265.704 310.314 264.598 308.08C278.234 296.557 292.193 286.171 298.69 268.702C300.208 264.618 300.456 260.227 301.853 256.109C301.905 255.956 301.96 255.805 302.014 255.653Z"/><path fill="#FEFEFE" d="M236.863 274.865C241.515 278.599 242.141 286.824 242.816 292.337C238.575 290.381 233.86 286.817 229.084 286.575C228.121 286.526 226.937 286.742 226.235 287.429C224.594 289.034 225.022 292.615 225.143 294.777C225.287 297.356 225.957 300.054 228.034 301.764C229.303 302.809 231.223 303.054 232.793 302.761C236.001 302.161 236.816 299.649 238.643 297.411C239.359 296.535 239.836 296.226 240.973 296.198L241.593 297.325C241.581 299.237 241.352 300.745 240.31 302.394C237.332 307.105 234.252 304.396 230.39 305.711C229.645 305.964 229.523 306.715 229.191 307.371C229.509 307.904 229.912 308.695 230.375 309.14C233.074 311.738 237.856 310.736 241.287 310.909L241.457 311.22C240.906 311.465 240.664 311.59 240.132 311.774C236.199 313.137 231.846 312.117 228.208 310.372C222.212 307.496 219.187 303.881 216.988 297.763C217.093 296.891 217.191 296.623 217.609 295.788L218.769 296.408L218.463 296.047C218.476 297.038 218.538 297.774 218.857 298.715C220.035 299.308 220.693 299.561 222.018 299.531L222.478 298.729C222.302 297.245 222.022 296.262 221.349 294.924C221.281 294.79 221.211 294.657 221.142 294.523Q221.553 288.062 223.262 281.817C228.261 279.53 232.44 278.378 236.863 274.865Z"/><path fill="#FEFEFE" d="M499.212 245.371C499.514 247.772 499.585 250.156 499.789 252.561C499.921 254.125 500.192 254.701 501.38 255.711C503.257 255.857 504.885 254.405 506.386 253.396C496.996 274.342 490.971 285.222 475.194 302.087C475.08 302.191 474.971 302.302 474.851 302.4C473.495 303.5 472.736 303.554 471.102 303.334C469.247 302.182 468.252 300.553 467.025 298.8C477.475 289.912 494.438 272.185 498.027 258.81C499.166 254.564 498.03 250.064 499.096 245.796C499.131 245.653 499.173 245.513 499.212 245.371Z"/><path fill="#FEFEFE" d="M864.44 630.695C865.143 630.826 865.805 631.062 866.486 631.277C868.726 634.192 871.146 645.454 872.489 649.721C874.933 657.486 877.838 665.12 880.558 672.792C881.781 676.243 883.414 680.037 884.173 683.614C884.443 684.887 884.066 685.068 883.384 686.132C882.872 685.965 882.248 685.764 881.818 685.432C878.012 682.491 866.148 646.229 864.476 639.944C863.562 636.508 862.536 633.973 864.44 630.695Z"/><path fill="#FEFEFE" d="M612.863 692.691C614.098 693.395 614.396 693.538 615.114 694.743C614.386 698.44 603.055 708.359 599.978 711.865C591.26 721.803 583.398 732.475 575.795 743.275C575.102 743.029 574.461 742.646 573.81 742.307L573.504 741.263C576.555 730.862 604.026 699.922 612.863 692.691Z"/><path fill="#FEFEFE" d="M200.636 292.364C201.63 292.363 202.482 292.53 203.451 292.747C204.522 293.785 204.794 293.997 205.039 295.509C205.617 299.083 213.755 305.629 216.702 310.362C216.714 312.419 216.982 314.78 216.201 316.71C214.641 317.522 213.916 316.997 212.245 316.59C210.634 316.453 208.91 316.578 207.287 316.577C204.623 312.677 201.727 309.877 198.575 306.46C199.075 305.472 199.606 304.848 200.304 303.993C200.021 301.534 197.865 299.58 197.73 297.463C197.605 295.486 199.41 293.663 200.636 292.364Z"/><path fill="#FEFEFE" d="M674.919 686.719C675.339 686.891 676.146 687.2 676.499 687.456C677.019 687.833 677.483 688.42 677.458 689.079C677.255 694.513 655.626 722.843 650.907 727.483C650.732 727.441 650.543 727.437 650.383 727.357C649.199 726.762 648.891 726.374 648.511 725.203C649.477 722.426 672.072 689.6 674.919 686.719Z"/><path fill="#FEFEFE" d="M222.027 313.584C225.624 315.482 229.058 317.626 232.512 319.769L232.666 320.172C234.423 324.772 235.927 328.042 233.802 332.803C232.446 333.36 231.021 333.759 229.581 333.217C225.666 331.743 223.173 326.013 221.248 322.649C221.365 319.589 221.611 316.619 222.027 313.584Z"/><path fill="#FEFEFE" d="M451.703 276.696C451.929 276.848 452.175 276.975 452.382 277.152C454.948 279.36 455.321 285.992 455.179 289.279C454.969 294.126 453.2 299.148 449.453 302.401C447.814 303.824 445.127 305.549 442.9 305.358C443.31 303.724 443.724 301.951 443.84 300.271C443.998 297.99 442.764 294.246 443.944 292.34C444.696 293.213 445.25 293.919 446.272 294.485C448.728 291.43 450.502 286.813 452.347 283.301C452.051 281.104 451.88 278.905 451.703 276.696Z"/><path fill="#FEFEFE" d="M885.152 660.256C885.418 660.283 885.686 660.29 885.949 660.337C887.396 660.594 887.813 661.091 888.566 662.291C890.567 665.48 899.748 684.751 899.058 687.394L897.281 687.123C893.565 684.604 889.302 674.366 887.333 669.954C886.089 667.166 884.017 663.276 885.152 660.256Z"/><path fill="#FEFEFE" d="M647.767 706.224C648.57 706.379 648.983 706.455 649.627 707.003C650.18 707.475 650.296 707.935 650.202 708.681C649.727 712.423 640.33 724.532 637.363 727.313C635.98 726.91 635.673 726.999 634.86 725.841C634.601 722.369 645.296 709.643 647.767 706.224Z"/><path fill="#FEFEFE" d="M575.433 721.462C575.414 721.756 575.429 722.054 575.377 722.344C574.557 726.909 559.96 745.588 555.445 748.001C555.244 747.354 555.011 746.722 555.132 746.027C556.034 740.866 571.208 725.445 575.433 721.462Z"/><path fill="#010101" d="M811.79 107.208C820.09 106.236 829.816 107.266 837.974 108.975C855.2 112.586 872.122 121.51 881.838 136.638C889.776 148.996 889.6 162.162 886.571 176.081C891.528 174.551 896.374 173.15 901.575 172.809C912.59 172.086 924.189 175.52 932.53 182.878C939.942 189.416 943.513 197.627 944.067 207.407C951.38 208.678 958.521 210.619 965.069 214.208C975.78 220.079 983.95 230.674 987.322 242.376C991.011 255.175 988.721 269.588 982.241 281.109C978.407 287.924 973.016 292.52 967.21 297.592C952.568 310.383 938.941 319.471 920.179 325.477C915.893 326.849 911.483 327.759 907.161 329.001C899.026 331.339 896.078 336.411 889.195 340.3C882.154 344.279 874.093 346.057 867.119 350.056C848.353 360.815 825.989 389.836 815.668 408.641C817.961 409.689 820.705 410.703 822.733 412.184C823.685 412.88 824.527 413.636 824.472 414.91C824.172 421.923 810.778 437.516 806.88 444.563C804.265 449.292 802.452 454.462 800.515 459.495C799.07 463.249 796.109 474.409 793.193 476.652C792.216 477.404 791.372 477.498 790.215 477.325L789.604 476.151C789.328 468.981 800.249 444.152 804.11 437.892C808.646 430.539 814.679 424.415 817.997 416.335C814.847 415.213 811.082 414.381 808.972 411.622C808.858 410.836 808.794 410.132 808.982 409.347C810.04 404.927 813.79 400.295 816.32 396.54C826.785 381.006 839.343 363.093 855.035 352.547C851.172 353.242 843.431 355.622 839.999 353.781C839.218 353.362 839.34 353.154 839.095 352.385C839.706 350.598 841.398 349.771 843.079 349.187C846.953 347.839 851.384 347.53 855.39 346.59C868.656 343.477 881.615 338.736 892.905 331.014C893.04 328.819 893.089 326.663 895.198 325.416C898.132 323.683 903.289 323.817 906.698 323.143C916.664 321.174 935.309 315.187 942.432 308.298C940.066 309.039 937.645 309.905 935.217 310.408C933.076 310.852 931.232 311.078 929.342 309.808C928.651 308.58 928.615 308.569 928.833 307.184C929.641 306.225 930.367 305.693 931.537 305.279C934.112 304.367 936.938 304.052 939.569 303.261C946.158 301.28 953 298.498 959.031 295.223C970.098 289.213 977.88 280.151 981.436 268.003C984.405 257.86 984.487 246.533 979.273 237.096C973.479 226.609 964.414 218.897 952.868 215.393C949.594 214.399 946.134 214.036 942.88 213.012C941.669 212.631 939.981 211.861 939.124 210.901C938.39 210.078 937.106 198.819 934.978 194.828C927.587 180.968 910.487 176.47 896.009 179.493C892.444 180.238 884.978 183.922 881.978 183.047C879.216 180.004 882.537 167.411 882.79 163.16C883.016 159.35 882.95 155.341 882.363 151.565C880.846 141.821 872.449 132.493 864.85 126.826C849.081 115.067 826.152 110.574 806.883 113.494C791.204 115.869 776.493 123.916 769.512 138.63C767.842 142.149 767.523 146.643 765.231 149.763C764.01 150.423 763.83 150.669 762.431 150.282C757.261 148.854 748.646 140.071 739.993 137.755Q738.962 137.49 737.92 137.275Q736.877 137.061 735.826 136.897Q734.774 136.734 733.716 136.621Q732.657 136.509 731.595 136.448Q730.532 136.387 729.468 136.378Q728.404 136.368 727.34 136.411Q726.277 136.453 725.217 136.547Q724.156 136.641 723.102 136.787Q722.048 136.932 721.002 137.129Q719.956 137.325 718.921 137.572Q717.885 137.819 716.863 138.116Q715.841 138.413 714.835 138.759Q713.828 139.105 712.84 139.5Q711.852 139.895 710.884 140.337Q709.916 140.779 708.97 141.268Q708.025 141.757 707.104 142.291C696.231 148.608 689.719 159.243 686.542 171.135C691.036 178.005 693.653 184.893 695.026 192.955C698.372 192.427 701.744 192.048 705.135 192.079C714.866 192.168 722.884 195.992 729.654 202.937C732.562 205.92 736.761 210.256 736.686 214.614C736.113 215.826 736.17 215.998 734.978 216.559C730.708 215.431 725.085 203.944 716.087 200.089C704.961 195.323 694.078 197.881 683.338 202.26C674.912 206.028 665.998 212.443 662.777 221.489C661.89 223.982 661.583 227.893 660 229.975C659.233 230.984 658.665 231.142 657.523 231.362C656.624 230.761 656.378 230.555 655.973 229.494C654.521 225.689 656.724 220.446 658.394 216.975C664.71 203.847 676.832 198.47 689.774 193.872C688.227 187.847 686.361 182.429 683.069 177.115C675.584 165.03 664.624 156.757 650.725 153.51C631.191 148.946 604.757 154.121 587.849 164.687C581.555 168.62 575.273 174.363 573.697 181.934C572.093 189.637 575.6 195.238 579.51 201.485C583.737 201.85 588.863 201.751 592.775 203.426C594.747 204.27 596.461 205.111 597.254 207.184C596.61 208.352 595.542 208.96 594.166 209.014C590.456 209.158 586.254 207.809 582.462 207.553C569.435 206.676 555.807 209.966 545.01 217.472C538.579 221.942 531.762 229.04 530.521 237.053C529.671 242.542 531.915 247.684 535.118 252.021C545.058 265.48 560.468 270.72 576.307 273.186C578.196 273.481 581.851 273.7 582.956 275.212C582.973 276.212 583.033 276.82 582.517 277.72C581.297 279.849 574.421 279.524 571.936 280.091C564.773 281.726 557.278 288.036 553.374 294.158C550.556 298.577 548.967 303.84 550.264 309.051C552.057 316.256 558.699 322.396 564.941 325.996C579.768 334.544 601.109 331.855 616.527 326.093C622.315 323.93 628.012 320.391 633.911 318.775C635.441 319.078 635.557 319.233 636.676 320.343C636.866 321.157 637.142 321.555 636.774 322.363C634.909 326.462 621.133 330.71 616.649 332.538C634.599 343.25 655.245 328.204 663.465 331.839C664.452 332.275 664.106 331.994 664.53 333.084C664.414 333.325 664.332 333.586 664.18 333.806C661.27 338.026 652.73 339.022 647.952 340.022C677.713 364.147 700.945 412.702 708.236 449.974C708.909 453.416 711.068 461.221 708.831 464.074C708.3 464.751 707.79 464.595 706.996 464.698C706.811 464.607 706.616 464.532 706.44 464.423C705.509 463.847 705.053 463.092 704.62 462.125C702.657 457.743 702.574 451.689 701.688 446.943C700.99 443.208 699.919 439.508 698.778 435.886C687.43 399.857 669.848 367.245 641.741 341.643C628.798 342.887 619.421 342.115 608.661 334.272C595.723 337.533 580.654 338.536 567.957 333.745C559.059 330.387 550.616 323.558 546.677 314.762C543.89 308.538 543.748 301.807 546.309 295.481C549.513 287.566 556.307 280.703 564.085 277.302C556.519 274.871 549.365 271.758 542.893 267.088C535.048 261.428 525.899 252.56 524.477 242.503C523.43 235.097 526.896 227.995 531.335 222.295C541.14 209.702 556.6 203.741 571.998 201.757C569.953 196.731 567.368 191.412 567.306 185.89C567.226 178.867 570.597 172.196 575.427 167.252C589.866 152.47 615.182 146.491 635.149 146.295C654.073 146.109 668.629 152.45 682.075 165.711C683.492 161.062 685.151 156.799 687.88 152.741C695.577 141.296 707.018 133.914 720.538 131.421C736.821 128.417 748.886 134.314 762.045 143.293C763.352 136.922 766.571 130.969 770.769 126.042C781.284 113.698 796.084 108.541 811.79 107.208Z"/><path fill="#010101" d="M784.585 319.219C785.965 319.267 786.684 319.34 787.944 320.001C788.709 321.356 788.857 322.05 788.497 323.586C787.186 329.19 783.813 334.55 781.782 339.952C778.67 348.231 776.571 357.444 774.864 366.118C772.169 379.806 770.82 393.734 768.073 407.436C762.624 434.615 755.942 461.301 752.116 488.809Q749.128 511.635 747.174 534.572C746.598 541.791 746.571 549.186 745.711 556.361C745.448 558.555 745.278 560.027 743.467 561.425C742.093 561.362 742.018 561.357 740.945 560.503C738.079 553.706 744.878 499.495 746.058 488.883C748.995 465.297 755.198 442.365 759.041 418.97L758.935 419.17L759.001 418.488L758.544 420.124L757.929 420.446C757.46 424.701 753.944 432.861 752.605 437.487Q749.048 449.773 746.959 462.392C746.223 466.59 745.93 471.161 744.873 475.264C744.542 476.549 743.843 478.146 742.894 479.097C742.017 479.976 741.433 480.111 740.24 480.087C739.321 479.11 739.07 478.514 738.979 477.154C738.741 473.604 740.03 469.335 740.669 465.801C742.752 454.272 745.187 442.881 748.508 431.634C750.834 423.759 753.722 416.034 756.2 408.2C758.254 401.706 759.918 394.498 762.788 388.351C763.583 386.648 764.957 385.143 766.165 383.716C769.662 361.168 774.338 339.77 784.585 319.219Z"/><path fill="#010101" d="M297.913 603.019C299.558 603.364 300.431 603.634 301.502 604.98C301.859 608.12 297.145 613.703 295.389 616.374C260.248 669.809 225.456 724.087 197.658 781.793Q183.36 810.743 170.927 840.541Q160.975 864.982 151.293 889.532C148.85 895.806 145.978 907.543 142.167 912.633C141.705 912.621 140.897 912.619 140.466 912.511C139.18 912.186 139.006 911.649 138.446 910.58C138.406 905.648 147.823 883.265 150.103 877.426C161.672 847.797 173.862 817.989 187.66 789.321C211.351 740.099 239.322 693.212 268.686 647.209Q278.274 632.079 288.138 617.128C291.204 612.472 294.122 607.113 297.913 603.019Z"/><path fill="#010101" d="M335.199 620.251C335.351 620.256 335.503 620.253 335.654 620.267C337.208 620.415 337.92 620.854 338.877 621.99C339.167 625.461 334.79 630.708 332.882 633.784Q324.29 647.634 316.654 662.033Q309.019 676.432 302.375 691.315C297.254 702.831 293.064 714.853 288.962 726.766C275.913 764.661 266.473 803.506 257.12 842.438Q253.557 856.923 250.473 871.517C249.094 878.113 248.454 886.633 245.766 892.662C244.03 892.522 242.974 892.534 241.692 891.273C240.545 884.504 248.711 853.553 250.708 845.161C267.231 775.724 284.329 705.841 320.721 643.682C325.343 635.787 329.903 627.712 335.199 620.251Z"/><path fill="#010101" d="M612.842 803.62C615.277 803.381 617.976 803.275 620.412 803.482C627.308 804.069 631.25 807.379 635.569 812.403C636.944 811.231 638.357 810.195 639.951 809.335C644.077 807.107 649.28 806.717 653.725 808.17C658.681 809.789 661.233 812.869 663.563 817.276C672.879 814.082 682.072 812.837 691.891 814.135C704.305 815.775 716.532 821.347 724.177 831.527C728.575 837.383 732.374 846.115 731.108 853.562C730.798 855.383 730.102 857.842 728.519 858.94L727.838 858.768C725.569 856.24 724.685 844.997 723.39 840.697C721.786 835.368 715.573 830.34 711.31 827.032C699.343 819.68 685.309 816.717 671.552 820.809C668.019 821.86 664.06 824.043 660.332 823.648C658.682 822.639 657.705 818.617 656.616 816.869C654.573 813.588 651.835 813.056 648.313 812.301C644.567 813.302 641.861 814.31 638.911 816.976Q638.861 817.884 638.789 818.791C638.616 820.971 638.446 822.936 636.679 824.447C632.037 823.505 630.991 812.439 624.882 810.393C613.213 806.484 602.215 812.635 593.915 820.378C592.266 821.916 590.188 824.817 588.139 825.656C587.398 825.959 587.142 825.635 586.472 825.342C585.976 824.596 585.475 823.942 585.425 823.007C585.35 821.606 586.119 820.22 586.937 819.138C592.844 811.321 603.284 805.218 612.842 803.62Z"/><path fill="#010101" d="M86.1613 730.225C86.6381 730.373 87.5954 730.591 88.0346 730.897C88.7459 731.392 89.0574 731.798 89.2422 732.625C89.9096 735.612 87.3878 739.695 86.501 742.53C83.8107 751.132 81.8194 760.08 79.7227 768.844Q74.7024 789.961 70.0916 811.171C67.9307 821.046 58.7742 869.073 54.9219 874.774C53.9875 874.562 53.3849 874.457 52.6308 873.819C51.8778 873.181 51.6145 872.153 51.549 871.193C51.0927 864.509 55.6737 851.998 57.2309 844.891C60.8496 828.374 78.1645 739.679 86.1613 730.225Z"/><path fill="#010101" d="M701.267 331.222C702.588 331.495 703.419 331.727 704.586 332.457C706.979 337.99 707.92 344.98 709.289 350.877C714.32 372.549 717.702 394.123 720.899 416.116C722.777 429.033 724.867 441.939 726.06 454.942C726.428 458.96 727.267 462.535 724.547 465.803C723.027 464.937 721.899 464.343 721.455 462.502C720.136 457.032 719.873 450.914 719.019 445.322C716.432 428.395 714.247 411.462 711.8 394.524C709.156 376.223 704.564 358.461 700.758 340.408C699.964 336.643 699.144 334.733 701.267 331.222Z"/><path fill="#010101" d="M142.561 561.937C144.215 562.24 145.692 562.34 146.959 563.553C147.124 564.021 147.216 564.17 147.194 564.734C147.091 567.402 141.296 586.79 140.176 591.219C134.034 615.506 128.378 639.835 121.605 663.971C119.578 671.193 118.064 678.763 115.548 685.81C114.279 685.995 113.608 686.072 112.411 685.579C111.902 684.866 111.621 684.638 111.49 683.739C111.278 682.271 111.533 680.703 111.882 679.275C117.503 656.251 124.059 633.378 129.862 610.378C133.558 595.729 136.726 578.978 141.035 564.786C141.371 563.679 141.896 562.869 142.561 561.937Z"/><path fill="#010101" d="M785.402 405.673C786.279 405.793 787.109 406.007 787.968 406.218C788.69 406.862 788.995 407.268 789.345 408.198C790.267 410.645 790.012 413.808 789.737 416.376C788.004 432.568 779.885 436.558 775.537 450.803Q771.032 466.089 767.92 481.719C766.499 489.095 766.465 498.44 763.437 505.234C762.457 505.468 761.502 505.538 760.5 505.624C759.919 505.281 759.415 505.177 759.171 504.499C756.685 497.575 769.868 446.207 773.231 436.223C776.704 425.909 781.45 415.835 785.402 405.673Z"/><path fill="#010101" d="M513.305 831.203C523.464 830.782 532.757 832.889 540.486 839.83C548.364 846.904 553.003 858.39 553.334 868.909C553.4 871.021 553.305 872.665 551.834 874.196C550.377 874.419 550.205 874.392 548.854 873.798C546.908 871.458 547.024 863.035 546.114 859.667C543.641 850.506 538.885 844.625 530.639 839.843C518.464 834.108 502.625 836.24 491.968 844.454C487.665 847.771 482.482 855.65 477.224 856.617C476.06 856.124 476.144 855.987 475.596 854.823C475.807 852.555 476.758 851.202 478.222 849.485Q479.037 848.513 479.9 847.582Q480.762 846.651 481.668 845.763Q482.575 844.876 483.524 844.034Q484.474 843.192 485.463 842.397Q486.452 841.603 487.479 840.858Q488.506 840.113 489.569 839.419Q490.631 838.725 491.726 838.084Q492.821 837.444 493.947 836.857Q495.072 836.271 496.224 835.741Q497.377 835.21 498.554 834.737Q499.732 834.263 500.931 833.848Q502.13 833.433 503.347 833.078Q504.565 832.722 505.799 832.426Q507.033 832.131 508.28 831.896Q509.527 831.661 510.784 831.488Q512.041 831.315 513.305 831.203Z"/><path fill="#010101" d="M801.137 258.642C805.205 258.18 809.395 258.192 813.478 258.41C822.421 258.889 825.616 261.051 833.558 263.07C838.535 264.334 845.399 263.599 849.121 267.708C849.493 268.951 849.613 269.179 849.275 270.412C846.231 272.206 838.662 269.421 835.016 269.058C820.901 267.652 819.16 278.26 809.656 285.068C808.488 285.904 807.901 285.802 806.561 285.512C805.52 284.314 805.602 283.859 805.4 282.323C810.086 275.029 816.03 269.615 823.548 265.359Q820.78 264.862 817.999 264.445C802.894 262.265 796.645 263.752 784.568 272.719C782.821 274.017 781.477 275.183 779.204 274.843L778.612 273.73C778.585 271.889 778.994 270.776 780.102 269.291C784.848 262.934 793.616 259.887 801.137 258.642Z"/><path fill="#010101" d="M729.587 249.18C732.215 248.951 734.768 249.04 737.369 249.515C740.797 250.14 744.208 251.315 746.24 254.27C746.472 255.716 746.551 255.776 745.847 257.042C742.29 258.911 735.042 253.057 726.774 255.267C717.108 257.85 712.431 265.986 707.961 274.081C703.628 273.571 699.737 273.74 695.689 275.622C688.634 278.904 684.938 285.509 682.487 292.504C681.305 296.763 682.268 301.023 681.226 305.106C680.747 306.981 679.78 307.409 678.218 308.265C678.107 308.186 677.983 308.122 677.884 308.028C676.074 306.314 675.958 301.863 675.906 299.465C675.719 290.859 679.417 282.189 685.438 276.081C690.82 270.622 697.314 267.748 705.041 267.736C706.399 265.177 707.875 262.621 709.673 260.343C714.953 253.65 721.064 250.2 729.587 249.18Z"/><path fill="#010101" d="M855.626 186.678C857.323 186.576 858.978 186.558 860.67 186.713C865.715 187.175 873.291 188.236 876.684 192.281C877.019 193.704 876.988 193.812 876.454 195.178C873.836 196.429 860.192 191.687 855.29 191.961C850.4 192.235 844.393 194.477 841.24 198.263C840.002 199.749 838.906 201.777 837.489 203.058C834.905 205.396 830.629 203.416 827.595 203.21C822.761 202.883 818.473 206.026 815.019 209.049C810.298 213.752 809.682 222.286 806.059 224.349C805.195 224.186 805.027 224.336 804.443 223.568C803.597 222.458 803.499 221.51 803.623 220.178C804.244 213.477 807.819 207.293 813.036 203.139C819.327 198.129 826.159 196.665 833.972 197.53C840.105 190.372 846.525 187.765 855.626 186.678Z"/><path fill="#010101" d="M112.21 559.797C112.639 559.892 113.196 560.003 113.597 560.156C114.688 560.573 115.452 560.948 115.751 562.161C116.5 565.208 112.977 580.88 112.367 584.673C109.2 604.383 107.82 624.588 104.098 644.165C103.849 645.475 103.424 646.245 102.64 647.31C101.145 647.125 100.673 647.161 99.4452 646.225C99.1931 645.343 99.0923 644.64 99.0868 643.713C99.0418 636.112 101.003 627.853 101.967 620.275Q104.295 601.039 107.166 581.877C108.084 575.818 108.78 569.524 110.287 563.588C110.695 561.982 111.032 560.977 112.21 559.797Z"/><path fill="#010101" d="M890.045 213.696C896.079 213.6 903.046 214.525 908.926 215.933C911.354 216.515 913.979 217.56 915.207 219.893C917.755 224.734 914.13 234.317 912.73 239.151C917.003 239.728 922.021 240.512 925.731 242.806C927.353 243.809 928.437 244.845 928.855 246.775C928.411 247.446 928.387 247.741 927.581 248.038C925.12 248.943 922.879 247.615 920.639 246.668C917.075 245.403 908.018 244.834 905.806 242.012C905.718 241.395 905.658 241.223 905.765 240.521C906.101 238.298 907.458 235.703 908.156 233.519C909.307 229.914 909.879 226.175 910.414 222.44C901.928 219.915 893.611 220.332 884.954 219.365C883.945 218.778 883.647 218.273 883.098 217.256C883.215 216.322 883.042 216.349 883.586 215.758C885.228 213.974 887.791 213.894 890.045 213.696Z"/><path fill="#010101" d="M201.08 584.816C201.276 584.831 201.474 584.838 201.67 584.86C203.278 585.044 204.299 585.331 205.358 586.575C206.104 595.843 187.508 646.967 181.338 655.281C181.048 655.292 180.755 655.352 180.467 655.314C179.258 655.155 178.577 654.434 177.918 653.506C177.312 650.205 183.955 638.38 185.343 634.627C191.401 618.248 195.768 601.418 201.08 584.816Z"/><path fill="#010101" d="M640.765 442.293C642.244 442.392 643.625 442.733 644.946 443.412C654.814 448.485 676.788 469.701 679.912 480.691C680.455 482.602 679.769 483.479 678.864 485.089C678.087 485.008 677.263 484.923 676.547 484.581C673.938 483.335 670.763 477.397 669.015 475.018C663.794 467.913 657.924 461.021 650.855 455.727C647.622 453.306 640.815 449.467 639.503 445.506C639.567 444.036 639.976 443.474 640.765 442.293Z"/><path fill="#010101" d="M941.342 783.112C947.049 782.556 954.481 782.653 959.814 784.827C961.455 785.495 963.112 786.996 963.685 788.704C963.972 789.561 963.849 789.332 963.388 790.245C962.518 790.699 961.746 790.872 960.756 790.758C955.201 790.119 952.752 788.208 945.989 788.352C937.172 788.54 930.05 791.797 923.905 798.122C920.239 802.096 919.412 806.504 916.617 810.833C915.709 812.24 914.875 812.793 913.256 813.08L913.682 813.167L912.741 812.622C912.452 812.061 912.551 812.321 912.373 811.4C911.52 807.005 913.822 802.502 916.194 798.994C922.29 789.978 930.802 785.122 941.342 783.112Z"/><path fill="#010101" d="M73.7144 612.912C74.3016 612.988 74.9164 613.047 75.4928 613.193C76.7211 613.505 77.2594 613.562 77.8927 614.744C77.7477 621.09 72.6056 668.573 70.786 672.94C69.1523 672.958 68.4047 672.798 67.2279 671.72C66.0384 665.887 71.0267 617.142 73.7144 612.912Z"/><path fill="#010101" d="M732.144 405.756L734.996 406.034C736.048 406.773 736.446 407.114 736.75 408.395C738.42 415.419 739.925 446.416 739.44 453.792C739.375 454.778 739.117 455.364 738.614 456.193C736.88 456.526 735.637 456.72 734.108 455.822C732.946 451.329 733.516 445.542 733.241 440.862C732.632 430.498 731.296 419.736 731.418 409.366C731.434 408.022 731.655 406.999 732.144 405.756Z"/><path fill="#010101" d="M164.843 693.812C166.444 694.333 167.471 694.894 168.326 696.363C167.03 702.891 153.43 737.219 149.628 741.854C147.967 741.484 147.016 741.278 146.043 739.821C146.077 737.286 160.806 700.105 162.862 696.229C163.372 695.266 164.073 694.568 164.843 693.812Z"/><path fill="#010101" d="M883.867 457.935C884.877 457.855 885.951 457.842 886.865 458.373C888.022 459.045 888.251 459.542 888.573 460.728C887.661 464.456 878.266 468.916 875.217 471.607C869.046 477.05 864.263 483.728 859.537 490.395C857.866 490.652 856.589 490.185 855.1 489.462C854.628 488.48 854.578 488.42 854.832 487.41C856.94 479.057 876.332 462.148 883.867 457.935Z"/><path fill="#010101" d="M307.63 775.662C308.099 775.686 308.802 775.695 309.238 775.845C310.581 776.309 310.831 776.923 311.385 778.093C311.262 782.674 294.347 814.246 291.368 820.207C290.807 820.079 289.94 819.948 289.408 819.68C288.085 819.013 287.973 818.685 287.479 817.383C288.221 813.444 304.994 779.423 307.63 775.662Z"/><path fill="#010101" d="M418.907 810.572C420.429 810.498 421.976 810.482 423.495 810.627C428.08 811.062 433.214 813.278 435.991 817.076C437.139 818.647 438.527 821.026 438.205 823.019C435.208 824.682 429.51 818.732 426.866 817.271C425.605 816.575 424.098 816.313 422.697 816.03L421.977 815.891C415.565 816.998 410.079 822.144 403.5 821.958C402.168 821.92 401.213 821.645 400.254 820.687C400.115 819.933 399.901 819.644 400.291 818.919C400.687 818.182 401.185 817.635 401.914 817.217C403.79 816.142 406.216 815.737 408.232 814.922C411.853 813.458 415.096 811.577 418.907 810.572Z"/><path fill="#010101" d="M788.965 439.204C789.628 439.52 790.589 439.877 791.133 440.359C791.902 441.041 792.173 441.634 792.156 442.638C792.107 445.487 783.447 472.936 781.978 477.032C781.589 478.117 781.015 478.798 780.241 479.628C779.615 479.421 778.656 479.194 778.135 478.804C777.153 478.07 776.847 477.244 776.764 476.051C776.468 471.824 784.525 446.418 786.867 441.809C787.383 440.793 788.143 439.979 788.965 439.204Z"/><path fill="#010101" d="M644.257 398.236C645.168 398.302 646.127 398.338 646.982 398.699C653.503 401.449 668.176 417.445 670.446 424.181C671.084 426.075 670.675 427.314 669.84 429.045C669.539 428.964 669.237 428.891 668.939 428.801C665.208 427.675 655.315 413.464 651.992 410.144C649.812 407.967 644.277 405.191 643.332 402.339C642.804 400.748 643.633 399.648 644.257 398.236Z"/><path fill="#010101" d="M645.734 858.206C652.163 858.448 659.323 859.745 664.496 863.846C665.881 864.944 666.865 865.991 667.034 867.784L666.075 868.472C661.728 868.801 658.536 866.953 654.677 865.193C652.157 864.391 649.712 863.651 647.031 863.704C642.836 863.787 636.778 866.887 632.991 865.022C632.438 863.77 632.454 863.745 632.788 862.414C635.852 858.998 641.411 858.516 645.734 858.206Z"/><path fill="#010101" d="M865.786 401.781C866.273 401.927 867.107 402.148 867.524 402.413C868.732 403.182 868.769 403.88 868.946 405.15C868.547 406.165 851.831 426.527 850.458 427.992C849.04 427.576 848.423 427.432 847.459 426.231C847.24 425.359 847.194 424.847 847.429 423.954C848.803 418.732 861.021 404.884 865.786 401.781Z"/><path fill="#010101" d="M832.433 800.096C834.381 799.932 836.373 799.764 838.329 799.885C842.019 800.113 848.203 800.574 850.755 803.399C850.978 804.746 850.901 804.771 850.237 805.981C847.112 807.812 841.34 805.523 837.821 804.91C832.66 805.088 828.734 807.641 823.814 808.404C822.507 808.606 821.759 808.592 820.709 807.804C820.835 807.25 820.826 807.13 821.165 806.57C823.434 802.817 828.41 801 832.433 800.096Z"/><path fill="#010101" d="M807.428 372.895C807.987 372.996 808.758 373.078 809.299 373.294C810.579 373.805 810.758 374.061 811.393 375.204C811.238 379.764 805.178 394.741 802.396 398.59C802.259 398.581 802.122 398.579 801.986 398.562C800.394 398.357 799.847 397.932 798.951 396.703C798.034 391.786 804.687 377.289 807.428 372.895Z"/><path fill="#010101" d="M366.638 704.682C368.249 704.956 369.237 705.185 370.273 706.513C371.114 709.744 361.866 725.839 359.761 729.768C359.185 729.763 358.298 729.553 357.72 729.46C357.049 728.793 356.764 728.698 356.539 727.733C355.566 723.566 364.192 708.608 366.638 704.682Z"/><path fill="#010101" d="M904.411 483.412C905.059 483.57 905.969 483.711 906.543 484.04C907.667 484.682 907.72 485.095 908.022 486.249C906.832 490.086 900.636 493.371 897.623 496.019C895.892 497.541 894.404 499.535 892.932 501.309C891.579 501.506 890.636 501.277 889.477 500.589C889.036 499.398 888.943 498.774 889.407 497.55C891.622 491.699 898.963 486.053 904.411 483.412Z"/><path fill="#010101" d="M396.574 661.262L398.808 661.424C399.475 661.903 400.012 662.057 400.258 662.889C401.339 666.554 394.112 674.901 392.416 678.536L392.06 679.309C391.172 679.261 390.331 679.098 389.456 678.945C388.889 678.434 388.444 678.237 388.264 677.451C387.286 673.17 394.136 664.752 396.574 661.262Z"/><path fill="#010101" d="M616.302 364.143C620.116 364.46 623.935 366.021 627.325 367.752C629.539 368.883 631.579 370.307 632.368 372.741C632.072 374.324 631.558 374.707 630.522 375.904C626.148 374.18 621.313 371.905 617.178 369.664C615.626 368.823 614.962 368.257 614.458 366.538C614.935 365.183 615.165 365.053 616.302 364.143Z"/><path fill="#010101" d="M952.685 466.914C953.745 466.846 954.734 466.986 955.672 467.507C956.397 467.909 956.251 468.205 956.428 468.955C955.431 472.826 950.154 476.192 947.091 478.614C946.534 478.492 945.579 478.359 945.05 478.08C943.859 477.451 943.707 477.107 943.312 475.923C944.186 472.076 949.565 469.017 952.685 466.914Z"/><path fill="#010101" d="M526.092 447.025C531.3 447.56 537.052 450.348 541.545 452.948C544.469 454.639 547.346 456.332 548.239 459.74C547.398 459.698 546.608 459.674 545.824 459.335C543.665 458.401 528.165 450.583 526.927 449.518C525.933 448.662 526.129 448.263 526.092 447.025Z"/><path fill="#010101" d="M847.015 450.222C848.496 450.815 849.331 451.196 850.151 452.652C850.511 456.185 847.42 459.352 845.487 462.07C844.456 461.879 843.511 461.623 842.517 461.292C842.017 460.579 841.693 460.36 841.661 459.442C841.546 456.222 844.953 452.48 847.015 450.222Z"/><path fill="#010101" d="M595.544 417.172C598.77 417.345 604.234 419.224 606.223 422.013C607.168 423.338 606.905 423.856 606.681 425.376C603.617 425.289 598.288 423.603 596.3 421.205C595.144 419.811 595.475 418.85 595.544 417.172Z"/><path fill="#010101" d="M910.561 506.672C912.736 506.38 915.165 505.921 917.131 507.221C918.246 507.958 918.279 508.159 918.456 509.383C917.796 510.747 917.045 511.238 915.828 512.038C914.102 512.418 912.005 513.039 910.319 512.24C909.089 511.656 908.988 511.331 908.626 510.132C908.99 508.571 909.542 507.837 910.561 506.672Z"/><path fill="#010101" d="M560.653 391.39C561.508 391.319 562.394 391.241 563.251 391.314C565.44 391.5 568.885 392.727 570.102 394.698C570.979 396.118 570.682 396.782 570.451 398.302C569.954 398.373 569.599 398.444 569.113 398.451C566.92 398.483 562.675 396.826 561.334 395.001C560.362 393.677 560.584 392.904 560.653 391.39Z"/><path fill="#010101" d="M878.738 519.424C880.467 519.606 881.013 519.575 882.47 520.603C882.725 521.401 882.949 521.633 882.683 522.483C881.949 524.832 880.308 525.585 878.269 526.653C877.019 526.538 876.352 526.265 875.271 525.633C874.886 524.949 874.559 524.722 874.709 523.897C875.131 521.575 876.894 520.576 878.738 519.424Z"/><path fill="#010101" d="M644.635 481.872L646.995 482.253C648.036 482.996 648.809 483.628 649.165 484.92C649.582 486.435 649.016 487.541 648.34 488.833C647.441 488.745 646.578 488.598 645.758 488.194C644.656 487.653 643.691 486.471 643.499 485.263C643.266 483.797 643.855 482.994 644.635 481.872Z"/><path fill="#010101" d="M890.167 414.354C891.73 414.317 893.43 414.29 894.59 415.565C895.821 416.919 895.455 418.802 895.173 420.419C894.602 420.471 893.816 420.595 893.231 420.513C891.933 420.331 891.365 419.712 890.528 418.777C889.931 417.087 889.902 416.119 890.167 414.354Z"/></svg>