<svg xmlns="http://www.w3.org/2000/svg" xmlns:xlink="http://www.w3.org/1999/xlink" width="1024" height="1024"><path fill="#FEFEFE" d="M0 0L1024 0L1024 1024L0 1024L0 0Z"/><path d="M438.261 163.771C462.007 163.024 485.898 163.603 509.647 163.985Q581.753 164.516 653.504 171.673C659.885 172.332 675.997 172.885 680.838 176.136C682.789 179.969 678.951 219.47 678.606 228.484C678.286 236.823 677.972 245.67 678.761 253.96L678.835 254.691C681.733 237.131 683.097 219.194 684.85 201.489C685.661 193.29 685.945 184.37 687.851 176.382C702.287 176.431 716.853 177.549 731.267 178.361Q756.201 179.886 781.063 182.32Q805.925 184.753 830.682 188.092Q855.439 191.431 880.057 195.671Q904.676 199.911 929.123 205.046C938.012 206.937 990.347 217.173 993.077 221.375C993.475 228.653 991.242 236.631 989.886 243.744C987.608 255.7 985.098 267.589 982.673 279.514L957.293 403.918C955.496 412.803 945.803 469.685 943.98 471.889C942.574 472.416 941.078 473 939.557 472.692C932.998 471.363 925.733 467.351 919.438 464.766C905.625 459.092 891.738 453.291 877.688 448.24C880.243 455.059 883.681 461.592 886.758 468.193L900.918 499.213L945.609 596.95C948.823 603.84 970.892 648.73 971.026 652.253C971.073 653.488 970.649 654.116 969.73 654.905C968.782 655.718 967.498 656.019 966.292 655.947C964.45 655.11 963.399 654.033 962.254 652.364C958.025 646.196 955.128 638.263 952.083 631.437C945.498 616.678 938.67 599.694 931.036 585.594C919.687 584.977 908.298 583.787 896.951 582.99Q862.658 580.612 828.329 578.827C840.936 592.653 852.003 607.237 863.653 621.833C879.787 642.047 895.995 662.257 911.76 682.759C921.317 695.187 931.096 709.634 941.345 721.249C943.411 723.591 945.664 725.603 948.606 726.754C950.512 727.5 951.387 727.797 952.274 729.718C952.226 730.688 952.24 731.656 951.788 732.545C950.481 735.116 948.222 734.582 946.006 733.982C930.087 729.672 910.923 733.573 895.865 739.369C885.959 743.182 877.227 749.773 869.509 756.944Q864.693 761.413 860.298 766.297C856.759 770.294 848.974 782.577 844.136 783.561C842.407 783.912 840.927 783.331 839.513 782.388C836.638 780.47 834.272 777.568 832.254 774.786C825.971 766.125 820.58 756.558 814.832 747.517L785.457 701.811L753.665 652.289C746.418 641.066 738.879 629.868 732.264 618.258C730.099 614.457 727.66 609.951 726.927 605.601C725.101 594.764 729.188 583.351 735.351 574.58Q682.198 571.856 628.997 570.33C599.707 569.347 570.278 568.216 540.977 568.886L540.451 575.246C550.945 580.027 555.993 589.908 561.723 599.365Q576.716 600.929 591.668 602.839C629.968 607.884 685.913 617.343 710.694 649.94C718.534 660.254 724.113 672.418 728.568 684.525C732.785 695.986 735.498 708.25 738.294 720.127C742.188 736.669 745.81 753.159 749.156 769.807C749.821 773.115 751.828 777.817 751.065 781.169C750.781 782.419 750.296 783.386 749.109 783.993C747.913 784.604 745.978 784.745 744.688 784.352C740.041 782.937 739.704 774.677 738.921 770.478Q733.897 742.865 727.013 715.657C722.615 698.046 718.222 679.949 709.42 663.9C694.95 637.519 672.798 627.822 645.122 619.835C567.01 598.539 418.45 590.771 346.899 631.361C336.186 637.439 326.168 645.748 318.531 655.435C300.272 678.597 290.173 713.672 284.227 742.216Q282.103 752.2 280.294 762.246C279.467 767.029 279.009 772.175 277.609 776.819C277.087 778.551 276.561 779.255 274.923 780.15C273.651 780.322 272.587 780.396 271.46 779.635C270.569 779.033 270.264 778.577 270.046 777.557C268.74 771.455 271.343 762.173 272.423 756.032C278.624 720.791 288.947 683.283 309.33 653.368C314.101 646.367 320.517 640.762 327.109 635.524C348.664 618.398 376.145 609.275 402.917 604.193C410.794 602.698 418.766 601.853 426.645 600.371C427.405 598.916 428.265 597.594 429.201 596.248C433.578 589.953 439.194 579.991 446.374 576.653C448.189 575.809 450.49 575.547 452.454 575.192L450.815 567.232C418.943 566.793 387.168 567.147 355.302 567.433C337.374 567.593 319.38 567.156 301.47 568.051C301.504 571.144 301.604 574.235 301.198 577.31C299.485 590.303 292.389 603.404 286.082 614.758C281.83 622.412 276.787 629.744 272.036 637.099C260.414 655.092 248.248 672.616 236.344 690.407L204.288 739.124C198.578 747.864 193.029 756.836 186.992 765.349C185.631 767.269 184.103 769.295 182.158 770.654C180.768 771.625 178.554 771.537 176.966 771.153C171.991 769.952 168.521 761.194 165.8 757.13C149.248 732.41 120.768 714.536 91.8951 708.371C83.8529 706.654 75.5619 706.977 67.609 705.356C66.8708 704.597 66.2665 704.125 66.0054 703.063C65.8063 702.254 66.1879 702.11 66.6342 701.494C70.9763 699.512 76.0477 700.355 80.6452 700.837C93.2767 687.555 104.211 671.89 115.494 657.408L152.208 610.506C159.098 601.615 165.685 592.266 172.943 583.685C177.395 578.422 182.557 573.686 187.144 568.504C174.442 567.229 161.251 568.024 148.501 568.238L82.4869 569.521Q76.3642 579.41 70.6007 589.513C67.9204 594.193 65.3778 599.582 62.0777 603.829C61.005 605.21 59.364 606.992 57.5554 607.349C56.6702 607.524 55.9448 607.391 55.2219 606.895C54.3008 606.262 53.2472 605.218 53.1414 604.05C52.8111 600.4 63.5655 583.852 65.9906 579.82C99.3538 524.35 135.981 470.585 178.45 421.622C161.984 426.549 145.101 430.473 128.487 434.91C111.676 439.399 94.9892 444.419 78.1199 448.677Q76.7988 448.311 75.4976 447.879C73.0973 447.07 70.614 445.716 69.54 443.298C67.027 437.642 66.5789 429.541 65.5714 423.367Q61.4614 398.783 58.1765 374.075C55.1464 352.572 33.2582 200.93 38.8843 191.178C39.5481 190.027 40.9404 189.413 42.1449 189.018C45.3402 187.971 48.9251 187.721 52.2221 187.022Q75.0605 182.227 98.2158 179.326Q125.801 175.668 153.491 172.916Q181.181 170.164 208.947 168.32Q236.712 166.475 264.523 165.542Q292.334 164.608 320.161 164.585C327.944 164.605 348.394 163.386 354.209 166.445C355.604 168.389 355.834 170.817 355.99 173.153C356.413 179.495 355.785 186.175 355.682 192.553Q355.532 212.451 354.981 232.341C358.281 232.921 361.661 233.244 364.987 233.666C365.233 225.388 363.235 170.045 364.916 167.546C367.254 166.132 369.688 165.612 372.39 165.311C381 164.35 390.245 164.677 398.922 164.563Q418.594 164.27 438.261 163.771Z"/><path fill="#FEFEFE" d="M278.808 170.739C301.992 170.124 325.475 169.696 348.642 170.747C348.705 197.397 347.335 224.05 347.5 250.726C347.743 290.357 349.624 329.916 350.201 369.529C343.908 371.55 337.072 372.658 330.623 374.193Q311.946 378.568 293.396 383.456L164.078 417.715C146.287 422.5 128.437 426.825 110.75 432.017Q95.0594 436.667 79.268 440.961Q68.5716 381.488 60.5979 321.59Q51.3561 257.423 46.5031 192.775C53.0708 192.047 59.6534 190.742 66.1905 189.74Q85.334 186.835 104.54 184.378Q147.916 178.853 191.508 175.441Q235.101 172.029 278.808 170.739Z"/><path d="M331.775 178.719C335.504 178.489 340.288 177.755 343.418 180.147C344.068 185.677 343.603 191.598 343.42 197.158L342.557 223.446Q341.764 258.923 342.662 294.397C342.813 301.088 344.844 361.852 343.506 363.636C337.702 365.521 330.857 365.331 324.791 366.524C318.909 367.68 313.106 369.297 307.26 370.623C298.371 372.639 289.42 374.378 280.529 376.384Q215.937 391.596 151.737 408.384C139.516 411.519 127.209 414.308 114.997 417.475C106.624 419.647 98.1909 422.413 89.7028 424.028C87.8232 424.385 85.9411 424.774 84.0565 424.29C81.4737 422.042 81.53 418.133 81.1089 414.95C78.1559 399.086 51.5162 206.638 55.6672 201.477C58.2122 198.313 76.3924 196.509 80.7285 195.865C97.7618 193.333 114.899 191.657 132.022 189.855Q189.343 183.852 246.919 181.26C275.192 180.091 303.502 179.865 331.775 178.719Z"/><path fill="#FEFEFE" d="M325.919 184.787C329.446 184.555 332.999 184.544 336.532 184.461Q334.099 227.727 333.906 271.061Q333.713 314.395 335.761 357.681L334.875 357.413L335.058 358.41L335.576 358.394L335.437 359.152C333.367 360.09 331.532 359.563 329.546 358.672C321.233 354.941 313.846 349.7 305.928 345.283C275.02 328.044 257.056 324.318 221.911 325.49C221.578 322.166 221.048 318.867 220.551 315.565C221.495 315.086 222.415 314.541 223.326 314.002C230.266 309.896 234 304.434 235.904 296.727C237.451 290.463 237.753 283.663 237.439 277.24C236.885 265.872 230.535 224.758 225.094 216.556C224.459 215.599 223.914 215.229 222.742 215.083C214.497 214.056 157.461 224.716 152.175 229.058C151.314 233.838 152.388 239.354 152.852 244.172C154.974 266.256 158.598 287.523 164.555 308.897C165.191 310.521 165.815 312.095 166.749 313.577Q165.647 322.766 164.96 331.996C132.646 341.916 108.291 367.212 86.0978 391.327C85.0332 385.954 84.58 380.353 83.7797 374.924Q80.7487 354.664 78.0707 334.355Q69.1814 269.157 62.7767 203.669C102.906 198.71 143.34 193.772 183.668 190.781Q254.719 186.018 325.919 184.787Z"/><path fill="#FEFEFE" d="M222.532 331.712C262.464 327.96 285.715 344.154 318.357 362.396C305.425 365.318 292.589 368.392 279.549 370.822C281.762 366.754 284.486 362.364 284.645 357.617C284.752 354.398 283.548 351.398 281.348 349.062C279.434 347.03 276.944 345.638 274.343 344.681C271.612 343.676 252.264 339.826 250.039 339.861C243.805 339.958 238.249 343.592 234.1 348.026C230.011 352.398 227.298 358.094 227.617 364.172C227.802 367.704 228.894 371.2 231.66 373.565C234.996 376.417 239.658 376.921 243.862 376.372C251.042 375.435 257.369 371.418 261.786 365.77C266.291 360.009 266.871 354.881 266.004 347.903C269.163 348.378 272.226 348.817 275.014 350.511C277.236 351.862 278.866 353.809 279.34 356.411C280.39 362.172 276.127 367.976 273.155 372.529L258.613 376.011C248.343 377.987 238.126 380.938 227.951 383.41L166.512 398.63C141.095 405.151 115.385 410.718 90.1545 417.937C89.275 413.343 88.6963 408.654 87.9883 404.028Q96.2069 391.478 106.273 380.356C120.894 364.035 142.682 344.454 163.929 338.181C182.303 332.757 203.479 332.758 222.532 331.712Z"/><path fill="#FEFEFE" d="M224.797 263.659L225.895 263.682C228.305 267.042 228.311 283.439 228.086 288.014C227.7 295.87 226.095 304.25 219.849 309.663C211.845 316.598 198.082 317.192 188.049 316.463C184.876 316.233 176.964 315.745 174.87 313.341C172.47 300.939 168.661 288.901 166.292 276.472C173.081 274.929 179.773 272.908 186.553 271.303C199.171 268.316 212.019 265.851 224.797 263.659Z"/><path fill="#FEFEFE" d="M215.275 220.631C215.989 220.509 216.355 220.589 217.053 220.728C219.737 224.403 221.071 234.641 222.139 239.324Q194.913 243.828 168.092 250.322L162.811 251.55C162.247 244.59 161.746 237.621 160.833 230.697C178.956 227.078 197.119 224.024 215.275 220.631Z"/><path fill="#FEFEFE" d="M220.819 245.181L222.691 245.06C225.083 247.656 225.246 255.087 225.715 258.615C206.447 261.9 187.146 265.479 168.226 270.435C167.14 270.691 167.225 270.796 166.084 270.394C164.333 266.272 164.359 260.652 163.945 256.18C182.378 251.074 201.909 248.076 220.819 245.181Z"/><path fill="#FEFEFE" d="M247.61 345.609C250.214 345.335 252.755 345.082 255.319 345.819C257.194 346.357 258.934 347.481 259.79 349.288C261.093 352.04 260.436 355.519 259.352 358.225C256.912 364.315 251.791 367.872 245.986 370.327C243.397 370.679 240.996 371.17 238.423 370.372C236.484 369.771 234.903 368.667 234.054 366.779C232.846 364.096 233.426 360.641 234.462 357.999C236.868 351.869 241.742 348.097 247.61 345.609Z"/><path fill="#FEFEFE" d="M174.429 319.875C186.821 323.444 199.867 322.014 212.336 319.728C212.663 321.238 213.048 322.781 213.16 324.326C213.261 325.71 213.369 325.916 212.483 326.966C199.579 328.569 186.392 328.779 173.42 330.185C173.613 326.712 173.944 323.319 174.429 319.875Z"/><path fill="#FEFEFE" d="M694.63 181.899Q722.506 183.05 750.318 185.264Q778.13 187.478 805.838 190.75Q833.545 194.023 861.107 198.35Q888.67 202.677 916.047 208.052Q936.561 211.958 956.911 216.642C966.141 218.691 975.443 220.563 984.481 223.367C977.225 253.156 972.319 283.537 966.33 313.598C957.954 355.633 948.895 397.463 941.743 439.745Q939.133 452.023 937.784 464.503C926.182 460.009 914.764 455.059 903.176 450.559Q859.403 433.508 814.833 418.663C769.143 403.556 722.472 391.169 676.165 378.156C678.056 353.214 679.492 328.131 681.939 303.246C685.916 262.787 691.15 222.391 694.63 181.899Z"/><path d="M701.816 189.492C712.311 188.747 723.548 189.849 734.087 190.339C776.65 192.317 818.603 198.643 860.552 205.764C892.239 211.143 923.481 216.677 954.668 224.553C957.929 225.377 970.108 227.335 971.917 229.321C972.406 231.115 972.405 232.684 972.194 234.533C971.15 243.674 969.236 252.897 967.815 262.012C962.086 298.748 954.645 335.183 947.966 371.752L939.339 417.725C937.691 426.521 936.272 443.08 932.444 450.279C931.032 450.645 929.607 449.835 928.29 449.343C915.704 444.64 903.374 439.226 890.883 434.275Q865.047 424.264 838.957 414.933C802.166 401.952 764.561 391.289 727.11 380.405Q715.691 376.98 704.168 373.919C698.204 372.397 691.013 371.455 685.48 368.821C684.449 367.468 684.606 365.861 684.612 364.192C684.65 354.382 686.312 344.219 687.162 334.431Q690.291 298.12 694.148 261.88C694.965 254.631 699.63 199.389 701.292 196.59C701.989 195.417 702.727 195.157 703.958 194.729C704.712 194.961 705.212 195.15 705.752 195.77C706.874 197.061 707.632 199.168 707.78 200.859C708.066 204.116 707.175 208.008 706.846 211.303Q705.496 225.555 703.701 239.758C709.167 234.407 714.752 229.349 720.968 224.874C736.065 214.003 750.386 208.645 768.89 206.87C774.311 206.35 780.403 205.935 785.791 206.899C789.234 207.515 792.396 208.95 794.373 211.948C799.255 219.347 796.436 230.151 792.427 237.337C791.31 239.34 788.541 243.092 788.231 245.351C787.966 247.286 789.634 249.561 789.935 251.451C790.272 253.562 789.038 257.475 788.595 259.66C792.39 260.819 794.608 263.989 798.621 265.182C805.769 267.306 813.437 268.285 820.777 269.573L856.22 275.714C859.39 266.266 863.67 255.717 862.21 245.639C861.491 240.677 860.002 235.236 860.567 230.218C861.06 225.83 863.427 222.328 866.946 219.737C870.055 217.447 874.191 215.735 878.117 216.396C884.304 217.438 891.184 223.071 895.733 227.152C901.166 232.025 905.754 238.084 910.705 243.465C926.064 260.156 941.078 276.646 954.15 295.246C955.796 287.981 956.858 280.489 958.142 273.148C960.539 259.44 962.925 245.688 964.232 231.827C931.101 223 896.965 217.268 863.142 211.785C833.782 207.026 804.568 202.38 774.997 199.033C760.911 197.439 746.534 196.067 732.369 195.452C724.58 195.113 716.57 195.563 708.831 194.816C706.894 194.629 704.504 194.347 702.979 193.013C701.869 192.042 701.917 190.839 701.816 189.492Z"/><path fill="#FEFEFE" d="M826.46 337.913C841.13 342.487 858.102 345.926 873.511 345.384C879.712 345.166 885.926 344.169 892.06 343.273C894.348 349.985 896.593 356.818 900.381 362.861C909.095 376.761 922.704 381.706 937.938 385.217C935.225 402.833 930.891 420.223 928.285 437.879L927.394 441.71C891.78 426.86 855.31 413.965 818.876 401.289C821.227 380.183 823.365 358.917 826.46 337.913Z"/><path fill="#FEFEFE" d="M751.481 313.585L752.132 313.613C762.878 320.908 769.413 321.175 781.593 323.719C781.388 330.448 780.47 337.297 779.851 344.011Q777.637 366.076 776.108 388.2C761.371 384.143 746.727 379.722 732.019 375.552C718.784 370.953 704.684 367.763 691.163 364.06C694.602 348.284 694.269 331.339 695.975 315.263C712.008 318.273 735.909 318.942 751.481 313.585Z"/><path fill="#FEFEFE" d="M873.078 252.021C873.718 251.998 874.359 251.959 874.996 252.061C879.412 252.765 882.95 258.421 885.363 261.768C882.029 264.976 869.252 279.975 868.842 284.389C868.72 285.705 869.163 286.364 869.925 287.355L871.21 287.412C875.596 284.819 877.596 279.055 880.664 275.124C883.162 271.923 886.052 268.935 888.801 265.944C903.043 280.539 914.678 295.616 914.557 316.856C914.027 323.232 912.142 328.393 908.487 333.636C903.34 322.775 895.07 318.813 884.779 313.75C882.57 308.882 878.932 305.067 877.204 299.902L878.715 294.291C877.142 292.146 874.745 289.168 872.096 288.39C871.078 288.09 870.286 288.022 869.388 288.714C867.968 289.808 867.802 291.17 867.776 292.805C867.771 293.091 867.773 293.376 867.771 293.662C864.518 292.845 860.926 290.307 857.97 288.65C859.226 286.61 860.689 284.467 861.609 282.256C863.13 278.597 863.881 274.564 865.066 270.781C866.151 267.314 867.735 263.933 868.668 260.432C868.983 259.253 868.926 258.171 868.801 256.971C868.691 255.921 868.657 254.887 868.611 253.832C869.697 252.786 871.639 252.45 873.078 252.021Z"/><path fill="#FEFEFE" d="M795.143 328.461C803.371 331.005 811.805 333.368 819.676 336.891C816.816 357.677 815.602 379.103 811.422 399.642C803.586 396.481 795.368 394.292 787.366 391.577C790.788 370.828 793.176 349.414 795.143 328.461Z"/><path fill="#FEFEFE" d="M773.702 240.116C775.926 239.894 778.716 239.491 780.738 240.585L780.769 241.411C779.827 242.911 778.625 244.578 778.38 246.377C778.184 247.818 779.064 248.733 779.78 249.845C781.719 252.859 780.584 255.461 779.832 258.694L783.218 262.589C782.304 266.574 784.002 273.122 781.05 276.203C780.178 277.113 778.953 277.421 777.721 277.288C773.381 276.818 775.191 262.881 770.653 259.267C769.686 258.497 769.044 258.287 767.835 258.386L767.083 259.315C766.434 264.169 770.765 273.631 772.18 278.865C768.2 280.733 764.113 282.264 760.197 284.288L759.846 284.717C757.66 284.993 756.692 282.526 754.559 282.29C753.884 282.215 753.392 282.745 752.97 283.213C752.019 284.27 751.916 285.256 751.866 286.603C752.555 288.098 753.311 288.789 754.586 289.827L755.046 290.195C755.118 291.158 753.208 292.998 752.526 293.819C747.787 288.902 744.346 285.445 737.508 283.764C737.36 274.896 738.332 266.303 743.129 258.625C749.814 247.924 761.848 242.754 773.702 240.116Z"/><path fill="#FEFEFE" d="M802.255 306.195C811.096 309.181 819.516 310.296 828.806 310.626C833 310.775 837.674 310.535 841.772 311.422C846.358 312.414 851.1 315.069 855.51 316.743C860.519 318.644 865.785 319.98 870.691 322.13C872.001 322.704 873.751 323.293 874.528 324.531C875.409 328.751 873.483 333.344 871.722 337.131C868.678 337.597 865.792 337.299 862.832 336.454C857.624 334.966 852.848 332.224 848.014 329.833C838.005 324.881 827.683 319.115 817.33 315C811.224 312.573 807.232 312.982 801.406 315.504C801.459 312.326 801.755 309.333 802.255 306.195Z"/><path fill="#FEFEFE" d="M801.342 271.424C819.353 274.086 837.354 277.131 855.31 280.149C854.819 281.232 854.243 282.257 853.664 283.294C852.132 283.976 850.624 282.914 849.078 282.325C847.509 282.635 846.914 283.215 845.838 284.298C843.982 287.856 844.402 291.289 844.526 295.172C831.709 294.412 816.473 292.042 804.626 287.135L802.451 282.054L803.667 277.641L801.342 271.424Z"/><path fill="#FEFEFE" d="M761.854 297.605C773.749 296.803 785.735 301.7 797.258 304.255C797.502 305.731 797.764 307.224 797.878 308.717C798.075 311.306 798.157 314.529 796.355 316.564C795.154 316.857 795.034 316.912 793.888 316.48C785.239 314.552 776.186 314.777 767.566 312.627C763.859 311.702 759.4 310.027 757.468 306.473C756.698 305.056 756.359 302.97 757.078 301.468C757.994 299.557 759.98 298.377 761.854 297.605Z"/><path fill="#FEFEFE" d="M903.153 341.269C905.834 343.17 907.528 348.132 909.627 350.88C916.488 359.861 931.51 362.004 941.873 363.254Q940.173 371.434 938.686 379.655C938.134 379.912 937.632 379.909 937.018 379.847C926.244 378.763 916.896 371.391 910.603 363.05C907.435 358.851 900.141 347.999 901.325 342.637C901.505 341.822 902.47 341.631 903.153 341.269Z"/><path fill="#FEFEFE" d="M810.669 320.18C820.892 321.224 842.074 332.95 851.833 338.103Q842.357 336.231 833.032 333.712C821.329 331.043 809.955 325.876 798.153 323.796C795.864 323.393 791.978 323.329 790.097 322.012L790.174 321.819C796.414 325.321 804.354 321.085 810.669 320.18Z"/><path fill="#FEFEFE" d="M804.427 293.788Q814.561 296.401 824.9 298.027C829.886 298.823 836.254 298.96 840.881 300.763C841.314 302.466 840.808 303.464 840.351 305.141C829.662 306.425 814.183 303.808 804.201 300.061L804.427 293.788Z"/><path fill="#FEFEFE" d="M721.212 244.85C722.079 244.99 722.915 245.124 723.726 245.477C726.584 246.722 730.006 249.973 731.138 252.914C731.791 254.614 731.728 255.809 731.033 257.458C729.751 258.865 728.462 259.332 726.71 260.013C725.913 260.146 725.128 260.24 724.318 260.247C722.238 260.267 719.402 258.436 718.089 256.889C716.683 255.234 716.123 252.987 716.396 250.849C716.761 247.995 719.062 246.422 721.212 244.85Z"/><path fill="#FEFEFE" d="M878.78 227.367C880.961 227.364 884.798 228.685 886.385 230.256C887.405 231.267 887.72 232.376 887.745 233.777C887.805 237.061 884.964 239.586 882.939 241.843C882.285 241.951 881.679 242.062 881.013 241.981C878.887 241.723 876.427 240.879 875.089 239.114C873.894 237.539 873.678 235.454 873.992 233.549C874.474 230.625 876.522 229.021 878.78 227.367Z"/><path fill="#FEFEFE" d="M898.844 248.962C899.48 248.945 899.527 248.922 900.249 249.029C902.148 249.311 904.28 250.441 905.391 252.03C906.433 253.519 906.578 255.254 906.269 257.006C905.692 260.282 903.544 262.021 900.914 263.781C900.309 263.767 899.603 263.786 899.001 263.665C897.051 263.269 895.133 261.748 894.148 260.027C893.098 258.193 893.114 255.982 893.654 253.982C894.389 251.264 896.593 250.27 898.844 248.962Z"/><path fill="#FEFEFE" d="M915.008 269.504C916.304 269.44 917.649 269.335 918.941 269.472C921.155 269.707 923.101 270.942 924.379 272.752C925.243 273.976 925.517 275.45 925.138 276.902C924.477 279.443 922.787 280.776 920.639 282.082C918.757 282.445 916.405 283.193 914.629 282.152C912.352 280.816 911.563 276.962 910.766 274.607C911.987 272.746 913.52 271.153 915.008 269.504Z"/><path fill="#FEFEFE" d="M734.917 229.011C735.595 228.961 736.324 228.881 737.007 228.917C739.444 229.044 741.766 230.427 743.387 232.218C744.702 233.671 745.408 235.694 745.195 237.653C744.937 240.022 743.32 241.114 741.583 242.49C741.274 242.482 740.962 242.5 740.655 242.466C737.74 242.136 734.655 239.919 733.025 237.54C731.983 236.019 731.297 233.977 731.808 232.141C732.249 230.556 733.62 229.818 734.917 229.011Z"/><path fill="#FEFEFE" d="M883.338 323.175C885.854 323.856 888.146 324.316 890.757 324.52C892.849 326.689 897.517 329.408 898.121 332.367C897.035 333.725 895.952 333.753 894.313 334.249C891.017 335.062 885.911 336.882 882.657 336.337C882.129 334.978 883.037 332.492 883.373 330.998C883.975 328.327 883.62 325.866 883.338 323.175Z"/><path fill="#FEFEFE" d="M738.961 289.66Q740.184 290.499 741.244 291.537C744.279 294.456 748.723 299.072 748.833 303.482C748.361 304.847 747.891 305.247 746.818 306.134C743.543 306.863 740.308 307.383 736.979 307.803Q738.087 298.744 738.961 289.66Z"/><path fill="#FEFEFE" d="M929.12 291.584C930.292 291.573 931.444 291.731 932.583 292.001C934.209 292.386 935.483 293.362 936.265 294.847C937.038 296.312 937.123 297.956 936.515 299.496C935.572 301.89 933.982 303.089 931.7 304.104C930.016 304.132 928.556 304.176 927.003 303.432C925.544 302.732 924.315 301.058 923.82 299.549C923.315 298.008 923.566 296.347 924.326 294.942C925.453 292.86 926.954 292.29 929.12 291.584Z"/><path fill="#FEFEFE" d="M755.369 218.546C758.059 218.873 760.383 219.204 762.44 221.112C763.68 222.262 764.35 223.742 764.348 225.44C764.345 228.461 762.4 230.319 760.383 232.298L759.399 232.762C757.39 232.35 755.82 231.203 754.582 229.584C753.116 227.665 752.078 224.759 752.524 222.335C752.877 220.419 753.891 219.604 755.369 218.546Z"/><path fill="#FEFEFE" d="M777.719 215.845C779.973 215.871 782.064 216.308 783.902 217.706C785.187 218.683 785.878 220.009 786.005 221.616C786.259 224.811 784.487 226.511 782.606 228.795C781.948 229.287 781.191 229.684 780.486 230.108C779.652 230.092 779.102 230.25 778.389 229.737C777.086 228.8 776.499 227.267 776.154 225.747C775.223 221.649 775.499 219.336 777.719 215.845Z"/><path fill="#FEFEFE" d="M789.093 266.062C790.307 266.029 791.375 266.051 792.583 266.231C792.76 267.128 792.752 266.801 792.729 267.576C792.712 268.127 792.598 268.888 792.72 269.424C793.094 271.061 795.09 272.001 796.392 272.929L795.792 279.281C793.585 279.908 789.905 278.312 787.737 277.683C788.355 273.809 788.78 269.972 789.093 266.062Z"/><path fill="#FEFEFE" d="M419.154 169.729Q450.989 168.849 482.836 169.042Q514.682 169.234 546.504 170.499Q578.327 171.765 610.088 174.101Q641.849 176.437 673.514 179.842Q672.103 202.194 669.991 224.491C667.967 243.934 665.266 263.307 663.22 282.754Q658.35 328.527 655.046 374.439L648.735 373.894C652.52 325.136 659.855 276.656 664.727 227.989C666.12 214.074 668.101 199.982 668.721 186.026C659.197 182.63 641.669 182.422 630.958 181.545Q594.375 178.293 557.67 177.035Q492.835 175.538 428 177.059L403.694 177.463C399.244 177.523 394.175 177.119 389.802 177.963C388.141 178.283 387.534 178.654 386.638 180.074C386.675 180.825 386.508 181.213 387.091 181.78C388.521 183.167 390.944 183.409 392.833 183.575C398.718 184.092 404.916 183.349 410.814 183.134Q423.068 182.791 435.327 182.703C480.452 182.186 525.585 181.269 570.694 183.061C600.424 184.242 629.995 187.221 659.64 189.622C659.167 204.944 656.98 220.428 655.292 235.66Q651.474 271.624 647.148 307.531C644.595 329.502 641.809 351.403 641.176 373.537Q634.773 373.63 628.377 373.304C610.306 372.013 592.087 370.981 573.977 370.463C574.597 366.185 574.481 362.666 573.046 358.566C570.429 351.087 563.324 344.7 555.733 342.559C551.87 341.47 547.787 341.203 543.939 340.029C541.344 339.236 538.858 337.912 536.423 336.727C536.002 320.905 537.449 304.888 537.612 289.032Q555.593 289.851 573.507 291.601C571.63 310.724 570.738 330.381 570.575 349.58C572.936 349.581 575.51 349.83 577.765 349.07C579.675 346.133 581.312 299.36 581.627 291.749C596.724 292.896 612.827 293.419 627.573 296.786C627.494 305.298 626.096 313.922 625.219 322.39Q623.373 340.989 621.859 359.619C614.026 358.73 585.863 356.263 579.273 358.611C578.352 359.642 577.804 360.12 577.64 361.55C577.977 362.195 578.034 362.507 578.686 362.923C580.204 363.891 581.981 364.096 583.741 364.246C589.795 364.763 595.925 364.283 601.996 364.567C609.499 364.919 631.351 367.867 637.052 366.415C638.248 366.11 638.732 365.822 639.383 364.795C639.151 364.227 639.146 364.113 638.69 363.579C636.456 360.967 631.491 360.729 628.352 360.305C629.55 345.983 631.16 331.672 632.666 317.379C633.43 310.13 635.166 301.651 634.457 294.42C633.963 293.648 633.892 293.332 633.049 292.881C625.949 289.081 540.635 282.012 530.651 284.748C527.836 288.309 529.14 327.192 529.211 334.184C525.959 333.002 522.788 331.97 519.412 331.206C519.542 321.781 523.394 288.03 520.663 281.817C519.048 280.948 517.203 280.854 515.4 280.785C507.672 280.491 499.769 280.885 492.029 280.949L443.339 281.358Q422.068 281.47 400.804 282.008C394.654 282.152 387.509 281.649 381.525 282.849C381.165 283.333 381.101 283.362 380.859 284.021C380.118 286.032 381.493 349.435 382.048 356.833C382.223 359.162 382.445 361.511 383.548 363.605C384.636 364.339 385.597 364.932 386.996 364.827C388.624 364.705 389.502 363.01 390.454 361.86C397.592 360.507 412.196 360.87 420.027 360.93C422.427 360.949 427.16 360.84 428.867 362.586C427.83 365.394 424.872 367.692 422.617 369.591C406.95 369.094 391.121 369.34 375.448 369.707C375.241 335.895 373.341 302.066 372.619 268.261C371.926 235.828 372.338 203.375 371.416 170.949Q395.29 170.532 419.154 169.729Z"/><path d="M383.029 179.327L385.091 179.786C386.132 180.867 386.11 182.293 386.235 183.715C386.972 192.084 386.812 200.725 387.056 209.137Q387.613 237.617 389.051 266.066C399.038 267.085 409.419 267.278 419.46 267.483Q420.683 254.184 421.645 240.863C415.799 236.466 409.963 230.069 406.926 223.351C404.501 217.988 404.319 212.23 406.436 206.732C407.58 203.76 409.253 200.462 412.323 199.166C413.15 200.229 408.94 210.143 408.707 212.723C407.578 225.217 419.542 231.153 426.26 239.285C424.569 248.335 425.405 258.725 425.327 267.952Q443.249 268.169 461.172 267.995C462.476 261.215 465.362 243.128 469.185 238.449C473.306 233.406 479.076 229.52 483.6 224.775C487.653 220.523 492.421 214.179 492.073 208.029C491.909 205.121 491.123 202.318 491.063 199.386L491.964 199.138C492.427 199.425 492.494 199.436 492.937 199.89C494.894 201.896 495.708 205.011 495.629 207.739C495.246 220.969 483.442 230.009 474.544 238.149C469.921 242.599 467.363 260.673 465.881 267.69C481.627 268.209 497.609 267.343 513.339 266.444C515.506 253.375 516.721 191.586 520.522 185.132C521.1 184.15 521.275 184.109 522.31 183.833C522.798 184.148 522.876 184.151 523.286 184.678C526.745 189.116 521.893 260.643 520.22 271.456C486.537 272.422 452.915 273.531 419.212 272.822C407.334 272.573 394.418 272.995 382.761 270.673C381.65 264.09 378.606 186.714 380.221 181.93C380.691 180.536 381.827 180.006 383.029 179.327Z"/><path d="M564.811 236.215C571.472 236.282 578.332 237.31 583.617 241.748C586.269 243.974 588.186 247.064 588.34 250.584Q588.359 251.085 588.329 251.585Q588.299 252.085 588.22 252.579Q588.14 253.074 588.013 253.559Q587.886 254.043 587.711 254.513Q587.537 254.982 587.317 255.433Q587.098 255.883 586.835 256.309Q586.572 256.736 586.269 257.134Q585.965 257.533 585.624 257.9C580.82 263.162 572.34 264.179 565.612 264.513C559.001 264.532 551.261 263.921 545.734 259.92C543.299 258.157 541.46 255.663 541.139 252.611C540.808 249.459 542.071 246.48 544.128 244.137C549.25 238.303 557.462 236.726 564.811 236.215Z"/><path fill="#FEFEFE" d="M562.705 241.596C567.55 241.255 572.771 241.831 576.934 244.523C578.877 245.779 580.684 247.669 581.084 250.032C581.318 251.41 580.997 252.778 580.179 253.922C577.806 257.243 572.743 257.84 569.028 258.539C563.778 258.738 557.808 259.072 552.94 256.732C550.996 255.798 549 254.267 548.44 252.074C548.105 250.763 548.413 249.637 549.059 248.488C551.394 244.335 558.33 242.475 562.705 241.596Z"/><path d="M563.694 194.604C570.881 194.086 578.596 195.17 584.725 199.19C587.853 201.242 590.73 204.29 591.332 208.119C591.699 210.455 591.099 212.782 589.713 214.69C585.66 220.274 577.579 221.706 571.239 222.871C569.021 223.161 566.861 223.37 564.62 223.283C556.831 222.983 550.096 220.633 544.679 214.831C544.059 210.731 544.075 207.664 546.434 204.097C550.214 198.382 557.268 195.834 563.694 194.604Z"/><path fill="#FEFEFE" d="M563.79 200.116C568.121 199.668 572.268 199.958 576.401 201.403C579.427 202.46 583.038 204.383 584.363 207.496C584.969 208.922 584.912 210.343 584.211 211.732C582.32 215.479 576.256 216.551 572.558 217.434C567.641 217.948 562.094 218.107 557.391 216.406C554.89 215.501 551.97 213.751 551.07 211.08C550.701 209.985 550.806 208.882 551.296 207.844C553.213 203.776 559.738 201.37 563.79 200.116Z"/><path d="M620.778 199.182C627.089 198.774 633.302 199.522 638.893 202.683C642.53 204.739 646.053 208.036 647.014 212.255C647.551 214.615 647.16 217.029 645.828 219.058C642.473 224.174 635.366 225.487 629.777 226.479C621.875 226.714 613.12 226.701 606.404 221.84C603.736 219.908 601.668 217.095 601.221 213.773C600.865 211.124 601.755 208.656 603.439 206.62C607.598 201.588 614.614 199.944 620.778 199.182Z"/><path fill="#FEFEFE" d="M619.644 204.602C624.623 204.105 629.428 204.39 634.04 206.538C636.43 207.651 639.594 209.803 640.252 212.561C640.589 213.975 640.454 214.957 639.707 216.208C637.906 219.226 633.038 220.188 629.87 220.948C624.841 221.541 619.732 221.338 614.947 219.519C612.416 218.556 608.882 216.555 607.959 213.797C607.581 212.668 607.524 211.59 608.126 210.524C610.21 206.834 615.811 205.497 619.644 204.602Z"/><path d="M615.399 240.579C622.04 240.226 628.114 240.514 634.226 243.428C638.529 245.48 642.944 249.029 644.465 253.724C645.152 255.846 645.05 258.074 643.882 260.012C641.212 264.437 634.719 266.364 629.95 267.464C622.691 267.803 615.082 267.97 608.37 264.728C604.916 263.059 601.428 260.236 600.186 256.472C599.499 254.391 599.697 252.33 600.723 250.399C603.554 245.073 609.98 242.389 615.399 240.579Z"/><path fill="#FEFEFE" d="M619.437 245.645C623.966 245.472 628.926 246.703 632.758 249.15C634.755 250.424 637.313 252.693 637.601 255.223C637.764 256.65 637.49 257.637 636.608 258.771C634.34 261.688 629.007 261.932 625.623 262.379C620.899 262.519 615.135 261.907 611.06 259.415C609.185 258.269 607.423 256.563 607.078 254.292C606.88 252.986 607.289 251.892 608.014 250.827C610.266 247.52 615.715 246.215 619.437 245.645Z"/><path d="M556.178 301.142C558.85 301.079 561.658 301.355 564.033 302.675C566.532 304.064 568.638 306.292 569.305 309.135C569.756 311.055 569.47 313.053 568.372 314.707C566.489 317.542 563.644 318.333 560.473 318.896C557.89 319.025 555.113 319.034 552.784 317.759C550.476 316.495 548.562 314.424 547.864 311.848C547.289 309.725 547.536 307.446 548.745 305.587C550.498 302.892 553.184 301.858 556.178 301.142Z"/><path fill="#FEFEFE" d="M555.966 305.445C558.228 305.563 561.092 306.061 562.587 308.007C563.465 309.15 563.41 309.553 563.329 310.903C562.519 312.32 561.611 312.765 560.233 313.505C559.236 313.537 558.233 313.583 557.236 313.537C555.727 313.466 553.806 312.621 552.934 311.315C552.144 310.131 552.323 309.679 552.514 308.349C553.491 306.822 554.379 306.284 555.966 305.445Z"/><path d="M593.216 336.594C595.208 336.498 597.379 336.48 599.247 337.259C601.564 338.227 603.589 340.374 604.443 342.731C605.103 344.55 605.067 346.483 604.128 348.193C602.836 350.548 601.04 351.321 598.563 352.047C596.339 351.99 593.793 351.864 591.745 350.928C589.444 349.877 587.3 347.738 586.497 345.314C585.988 343.778 586.018 342.207 586.792 340.757C588.149 338.215 590.58 337.275 593.216 336.594Z"/><path fill="#FEFEFE" d="M593.855 340.952C594.858 340.961 596.058 341.026 596.994 341.42C598.229 341.941 598.67 342.566 599.256 343.713C598.968 345.415 598.629 345.618 597.496 346.851C596.465 346.685 595.34 346.557 594.353 346.219C593.007 345.758 592.485 345.182 591.819 343.982C592.194 342.354 592.684 342.093 593.855 340.952Z"/><path d="M598.693 303.55C600.364 303.584 601.991 303.693 603.559 304.325C605.97 305.297 608.167 307.175 609.109 309.645C609.779 311.403 609.672 313.123 608.848 314.817C607.69 317.199 605.059 318.222 602.723 319.013C601.176 319.017 599.669 318.988 598.193 318.47C595.771 317.62 593.686 315.926 592.668 313.528C591.911 311.743 591.891 309.709 592.728 307.95C594.009 305.261 595.995 304.436 598.693 303.55Z"/><path fill="#FEFEFE" d="M599.48 308.276C600.073 308.351 600.672 308.41 601.243 308.601C602.608 309.056 603.449 309.661 604.134 310.943C604.099 312.529 603.727 312.745 602.794 313.977C601.633 313.816 600.149 313.665 599.073 313.153C597.858 312.574 597.462 312.098 597.092 310.846C597.538 309.482 598.355 309.04 599.48 308.276Z"/><path d="M601.635 324.133C605.741 324.295 615.565 323.841 618.137 327.247C618.817 328.146 618.944 329.466 618.541 330.514C618 331.921 617.162 331.915 615.881 332.365C611.259 332.069 601.935 332.52 598.661 329.15C598.297 327.981 598.099 327.374 598.665 326.168C599.218 324.992 600.529 324.574 601.635 324.133Z"/><path d="M437.633 192.313C438.094 192.799 438.579 193.137 438.745 193.819C439.459 196.749 436.605 201.454 435.073 203.846C434.694 203.61 434.377 203.436 434.049 203.115C433.3 202.382 433.275 201.341 433.322 200.364C433.474 197.218 435.345 194.349 437.633 192.313Z"/><path d="M475.625 194.877C476.137 195.2 476.436 195.583 476.834 196.034C477.296 198.59 477.796 201.358 477.433 203.956C477.236 205.37 477.01 205.37 475.91 206.189C475.725 206.002 475.537 205.819 475.356 205.628C473.804 203.999 473.534 201.03 473.67 198.86C473.794 196.891 474.181 196.218 475.625 194.877Z"/><path d="M450.189 215.337C450.345 215.463 450.521 215.568 450.657 215.716C451.391 216.517 451.729 217.167 451.773 218.25C451.847 220.097 450.625 221.643 449.504 222.976C448.475 222.495 448.35 222.471 447.782 221.503C447.59 218.906 448.693 217.338 450.189 215.337Z"/><path fill="#FEFEFE" d="M472.298 375.722C480.522 375.252 489.002 375.243 497.238 375.398C501.253 377.859 506.239 381.187 509.42 384.653C511.568 386.993 514.447 393.988 516.826 394.937C520.412 393.778 519.542 391.844 521.331 389.22C523.475 386.073 530.171 384.829 533.644 383.857C531.884 387.767 530.685 390.187 532.052 394.483C533.585 399.299 533.163 403.858 533.687 408.807C534.115 412.85 536.089 422.808 539.717 424.998C540.763 425.63 541.653 425.894 542.862 425.549C547.7 424.169 550.707 415.793 552.698 411.59C557.03 411.53 561.479 411.185 565.623 412.693C574.462 415.911 585.36 423.806 593.973 428.613C613.284 439.392 633.416 450.195 653.839 458.704C653.364 462.04 652.955 465.184 653.658 468.538C654.896 474.441 658.813 478.998 663.795 482.206C672.873 488.052 683.444 489.108 693.807 486.777C694.671 490.375 695.571 494.243 697.896 497.214C700.283 500.266 702.258 499.276 705.415 500.177C705.777 500.281 706.533 500.621 706.862 500.922C709.804 503.61 738.081 558.954 741.399 566.655C740.861 568.176 739.849 568.572 738.566 569.51C723.465 568.391 708.241 568.138 693.107 567.521Q648.093 565.387 603.044 564.241C582.616 563.736 562.138 563.854 541.724 563.049C542.655 559.176 543.92 555.429 545.174 551.653C546.645 551.223 548.159 550.796 549.562 550.167C558.397 546.205 564.968 534.923 568.404 526.35C570.434 521.285 572.155 514.994 569.772 509.779C568.076 506.069 565.015 504.097 561.342 502.646C561.863 487.554 562.09 473.381 557.145 458.878C553.708 450.418 549.137 444.19 541.681 438.846C523.04 425.486 487.628 422.78 465.439 426.523C454.177 428.423 442.209 432.299 435.447 442.179C425.357 456.923 427.69 484.798 430.885 501.622C428.106 503.28 426.563 504.845 425.419 507.927C422.975 514.517 425.614 522.639 428.494 528.721C431.806 535.715 439.169 546.688 446.984 549.152C447.202 549.22 447.423 549.275 447.642 549.337L448.162 550.053L448.216 549.791L446.853 551.045C445.379 554.775 446.834 558.108 447.858 561.792C441.751 561.985 435.614 561.684 429.501 561.688L398.588 561.945L300.552 562.723C298.469 554.009 295.347 548.26 289.136 541.788C295.945 532.681 302.131 523.257 308.714 514.008C315.733 504.145 323.125 494.556 330.114 484.666Q334.77 485.486 339.455 486.116C342.528 481.845 344.174 475.548 347.633 471.93C351.586 472.574 355.029 472.386 358.847 471.076C366.58 468.423 376.805 460.408 380.161 452.79C382.824 446.747 380.914 440.625 378.625 434.849C384.866 430.11 390.44 423.64 395.999 418.107Q410.935 403.041 426.344 388.46C430.486 384.511 434.628 379.967 439.269 376.628Q455.79 376.402 472.298 375.722Z"/><path fill="#FEFEFE" d="M674.836 296.235C674.857 301.794 673.669 307.801 673.108 313.357C672.222 322.117 666.301 376.57 668.312 380.689C668.715 381.515 669.876 382.172 670.663 382.624C677.217 386.389 711.521 394.313 721.145 397.22C770.07 412.001 818.984 426.412 866.991 444.02C868.581 448.708 871.018 453.098 873.122 457.571Q877.347 466.73 881.444 475.947L912.322 543.847C917.779 555.866 923.666 567.86 928.494 580.139C915.967 579.554 903.388 578.227 890.879 577.272Q857.175 574.62 823.402 573.073C813.818 563.346 805.351 558.365 791.96 555.642C780.83 553.485 770.101 554.667 759.2 557.353Q748.573 538.169 737.632 519.162C732.599 510.561 727.211 502.242 722.808 493.285C723.628 492.764 724.471 492.203 725.214 491.576C726.719 490.307 727.575 488.506 727.628 486.543C727.785 480.66 721.868 472.448 718.04 468.172C714.977 467.777 711.848 467.622 708.768 467.371Q711.975 455.511 715.532 443.751C717.343 437.846 719.91 431.463 720.598 425.308C720.862 422.941 720.662 420.596 719.89 418.336C718.282 413.629 714.579 410.446 710.146 408.431C701.134 404.333 690.743 404.975 681.64 408.443C665.488 414.598 665.957 427.927 659.606 441.992C649.304 436.069 587.104 408.524 583.974 404.411C584.335 401.862 586.176 400.791 586.911 398.566C587.435 396.981 587.268 395.356 586.627 393.839C583.749 387.025 575.32 384.047 568.988 381.437L571.054 377.466C589.799 377.631 608.714 379.149 627.436 380.226C635.44 380.687 643.933 381.766 651.93 381.37C655.18 381.209 658.325 380.614 661.304 379.269C663.134 377.102 668.458 314.031 668.944 305.09C672.13 302.285 673.462 300.231 674.836 296.235Z"/><path fill="#FEFEFE" d="M364.577 289.384C365.25 289.674 365.169 289.466 365.346 290.136C366.452 294.322 365.741 302.012 365.869 306.582Q366.435 327.635 367.234 348.681C367.417 355.197 367.048 362.263 367.996 368.683C368.386 371.324 368.902 374.61 370.744 376.641C371.374 377.336 372.393 377.231 373.283 377.205C377.147 377.095 381.006 376.593 384.879 376.485C394.866 376.207 404.917 376.485 414.91 376.551C409.715 382.167 403.945 387.233 398.449 392.551C389.627 401.086 380.856 409.961 371.395 417.783C368.166 412.003 365.982 405.62 362.748 399.82C359.71 394.373 355.656 388.825 349.314 387.189C341.727 385.231 333.128 388.507 326.563 392.241C320.716 395.566 314.712 400.877 313.074 407.641C310.772 417.154 325.572 436.998 330.555 445.495C323.574 447.049 317.817 449.561 312.896 454.928C310.33 457.726 308.188 461.162 308.497 465.099C308.769 468.57 310.767 470.399 313.344 472.466C307.37 481.846 300.304 490.499 293.683 499.424L270.007 531.951C265.913 531.147 261.752 530.513 257.581 530.325C239.477 529.508 221.446 537.659 207.592 548.864C202.335 553.116 197.536 558.047 192.546 562.614L187.25 562.615Q136.541 562.545 85.8632 564.345C97.7107 543.331 111.629 523.103 125.488 503.351C141.398 480.674 157.477 458.571 175.05 437.15C179.393 431.856 186.438 421.69 192.363 418.512C198.357 415.297 208.015 414.185 214.784 412.261C249.321 402.446 284.178 393.897 318.835 384.547C325.7 382.696 355.024 376.627 357.621 374.533C359.036 366.886 357.863 357.538 357.669 349.76L356.622 304.502C357.709 303.55 359.1 302.787 359.427 301.362C358.932 300.814 358.462 300.259 357.979 299.702C356.627 298.144 356.685 296.742 356.548 294.758L356.493 293.904C359.234 292.508 361.899 290.9 364.577 289.384Z"/><path fill="#FEFEFE" d="M251.257 535.667C261.301 534.787 272.402 538.519 280.344 544.615C287.333 549.979 291.201 557.856 292.216 566.52Q292.431 568.297 292.487 570.085Q292.544 571.874 292.44 573.66Q292.337 575.447 292.076 577.217Q291.814 578.987 291.396 580.727C288.022 595.003 276.434 616.088 267.311 627.701C263.218 619.044 258.282 611.376 251.783 604.341C251.189 603.705 250.573 603.099 249.949 602.492C232.492 585.509 210.805 579.305 186.902 579.589C191.647 573.783 197.012 568.615 202.404 563.422C216.62 549.73 230.978 538.256 251.257 535.667Z"/><path fill="#FEFEFE" d="M775.833 561.21C778.626 560.982 781.469 561.074 784.265 561.245C806.403 562.599 819.069 580.111 832.511 595.427Q830.733 595.036 828.941 594.711C807.199 590.798 788.036 595.021 769.893 607.51C761.847 614.036 753.983 621.728 750.503 631.723C746.336 625.475 735.656 608.514 735.046 601.501C734.409 594.166 739.578 580.792 744.368 575.058C751.746 566.229 764.722 562.002 775.833 561.21Z"/><path fill="#FEFEFE" d="M451.075 307.138C458.719 306.434 467.135 307.535 473.739 311.667C478.995 314.957 482.986 320.374 484.235 326.479C486.014 335.174 483.478 344.861 478.658 352.179C473.905 359.395 466.866 364.148 458.436 365.909C450.502 366.387 443.863 364.692 437.309 360.14C431.147 355.86 426.591 349.147 425.454 341.666C424.272 333.886 426.935 325.209 431.589 318.946Q432.025 318.36 432.488 317.796Q432.952 317.232 433.442 316.69Q433.932 316.149 434.448 315.632Q434.964 315.116 435.504 314.624Q436.044 314.133 436.607 313.668Q437.171 313.203 437.756 312.767Q438.341 312.33 438.946 311.922Q439.552 311.513 440.176 311.135Q440.801 310.757 441.443 310.409Q442.085 310.061 442.743 309.744Q443.401 309.428 444.074 309.144Q444.746 308.86 445.432 308.608Q446.117 308.357 446.814 308.139Q447.511 307.921 448.218 307.737Q448.925 307.553 449.639 307.403Q450.354 307.253 451.075 307.138Z"/><path fill="#FEFEFE" d="M434.887 286.736Q447.036 286.515 459.186 286.646C458.6 291.443 458.922 296.252 459.115 301.065C455.221 301.022 449.953 300.802 446.309 302.146C443.366 303.232 440.643 304.753 437.651 305.749C432.67 304.297 434.722 295.029 432.074 291.113C430.734 290.472 430.676 290.511 429.21 290.809C428.486 291.513 428.207 291.908 427.955 292.918C426.656 298.134 429.153 305.14 431.936 309.442C428.942 311.777 426.39 314.2 424.125 317.25C422.446 319.917 421.109 322.653 419.782 325.506Q404.634 325.527 389.501 326.193C388.865 313.386 388.665 300.564 387.921 287.759C403.385 286.659 419.351 287.083 434.887 286.736Z"/><path d="M443.153 293.179C444.989 293.071 447.079 292.81 448.891 293.157C450.538 293.473 452.653 294.325 453.594 295.755L453.265 296.717C451.66 297.625 449.919 297.711 448.123 297.942C445.087 298.186 441.679 298.792 438.68 298.124C437.316 297.821 436.452 297.528 435.709 296.328C435.846 295.994 435.946 295.698 436.172 295.403C437.58 293.57 441.024 293.407 443.153 293.179Z"/><path fill="#FEFEFE" d="M480.562 578.289C495.756 576.89 514.753 578.426 529.879 580.605C543.772 582.606 543.956 587.926 551.652 598.205C537.08 597.467 522.609 596.289 508.006 596.035C484.357 595.8 461.165 597.146 437.609 599.166C440.146 595.206 442.742 591.124 445.892 587.615C453.411 579.241 469.823 578.951 480.562 578.289Z"/><path fill="#FEFEFE" d="M353.517 395.969C359.928 403.279 364.801 416.871 368.486 426.036Q367.568 427.55 366.545 428.994C359.579 438.648 349.483 443.365 337.993 445.135L335.035 440.623C331.32 434.533 317.704 417.034 318.56 410.626C318.714 409.468 318.947 408.506 319.874 407.8C321.425 408.764 323.023 409.871 324.667 410.659C329.208 412.834 336.096 411.729 340.563 409.893C347.329 407.113 350.868 402.509 353.517 395.969Z"/><path fill="#FEFEFE" d="M490.107 286.261C497.425 285.965 504.806 285.802 512.12 286.25C512.306 297.248 511.941 308.326 511.804 319.327L488.694 318.532C482.878 309.956 475.779 305.862 466.225 302.304Q465.623 294.441 465.556 286.555Q477.833 286.531 490.107 286.261Z"/><path fill="#FEFEFE" d="M677.333 419.489C679.209 421.572 679.856 423.58 682.292 425.384C691.015 431.845 701.527 431.351 711.687 429.745C709.597 437.848 706.833 450.532 703.294 457.752C702.166 458.738 700.548 458.637 699.119 458.766C694.09 459.548 689.223 459.855 684.185 458.942C676.243 457.503 669.615 454.05 664.978 447.29C669.161 438.005 671.429 427.948 677.333 419.489Z"/><path fill="#FEFEFE" d="M482.285 557.22C496.3 556.297 520.911 556.513 534.735 558.131C534.43 563.451 533.508 568.817 532.827 574.105C526.618 573.197 520.369 572.681 514.123 572.111C497.087 570.814 479.646 570.731 462.72 573.197C462.247 568.325 461.405 563.45 460.717 558.602Q471.481 557.597 482.285 557.22Z"/><path fill="#FEFEFE" d="M544.661 348.617C549.084 348.156 552.653 348.27 556.702 350.459C561.307 352.949 565.021 357.438 566.392 362.511Q566.594 363.232 566.723 363.97Q566.852 364.708 566.906 365.454Q566.96 366.201 566.938 366.95Q566.917 367.699 566.82 368.441Q566.724 369.184 566.553 369.913Q566.383 370.642 566.14 371.35Q565.897 372.059 565.584 372.739Q565.271 373.42 564.891 374.065C562.249 378.56 558.293 380.618 553.429 381.873C549.063 382.563 545.074 382.568 540.928 380.734Q540.183 380.411 539.474 380.014Q538.765 379.617 538.099 379.151Q537.434 378.684 536.819 378.154Q536.204 377.623 535.646 377.033Q535.087 376.443 534.591 375.799Q534.095 375.156 533.666 374.466Q533.237 373.776 532.879 373.047Q532.522 372.317 532.24 371.555Q531.948 370.785 531.733 369.991Q531.518 369.196 531.382 368.384Q531.246 367.572 531.191 366.75Q531.136 365.929 531.162 365.106Q531.189 364.283 531.296 363.466Q531.403 362.65 531.59 361.848Q531.777 361.047 532.042 360.267Q532.307 359.488 532.648 358.738C535.095 353.378 539.38 350.635 544.661 348.617Z"/><path fill="#FEFEFE" d="M398.047 331.285C404.722 330.84 411.459 330.822 418.146 330.915C417.366 339.901 417.855 348.146 422.673 356.034L413.848 356.388L390.098 356.912C390.032 348.443 390.07 339.957 389.542 331.502L398.047 331.285Z"/><path fill="#FEFEFE" d="M662.743 454.734C665.386 456.278 667.692 458.953 670.399 460.664C680.587 467.106 689.829 465.574 701.205 465.199C702.009 465.847 701.99 466.258 702.325 467.208C702.065 469.306 701.036 470.454 699.423 471.724C698.184 472.699 697.048 473.715 695.903 474.799L690.836 480.175C684.315 481.564 678.56 481.318 672.371 478.692C667.706 476.712 662.893 473.662 661.083 468.685C659.354 463.928 660.815 459.154 662.743 454.734Z"/><path fill="#FEFEFE" d="M370.837 433.823C370.94 433.904 371.05 433.976 371.145 434.067C374.65 437.417 375.74 445.786 376.029 450.413C375.435 451.376 374.83 452.227 374.093 453.088C369.939 457.943 360.739 466.519 354.022 466.767C352.195 466.835 351.313 466.014 350.08 464.847C346.841 460.271 343.968 455.494 341.092 450.687C354.258 449.8 362.164 442.978 370.837 433.823Z"/><path fill="#FEFEFE" d="M519.317 337.593C525.607 339.804 531.979 342.109 538.004 344.972C535.367 346.467 532.475 347.833 530.223 349.884C524.793 354.833 523.773 361.111 523.433 368.058L507.171 368.402L499.454 368.479C495.952 365.684 492.266 363.115 488.629 360.499Q502.205 360.514 515.74 359.45C518.702 352.842 518.468 344.711 519.317 337.593Z"/><path fill="#FEFEFE" d="M492.706 333.915Q502.308 333.9 511.823 335.182Q511.232 345.373 510.362 355.544C507.812 355.947 505.199 356.051 502.624 356.245Q493.514 356.54 484.399 356.626C489.637 349.408 491.258 342.55 492.706 333.915Z"/><path fill="#FEFEFE" d="M434.887 366.325C436.054 367.014 437.171 367.577 438.008 368.678C429.273 378.23 419.349 387.023 409.974 395.94Q393.246 411.919 376.948 428.336C376.871 428.31 376.785 428.302 376.717 428.258C375.379 427.403 374.412 424.454 373.75 423.027C383.26 414.181 392.361 404.866 401.965 396.139C412.904 386.199 424.507 376.856 434.887 366.325Z"/><path fill="#FEFEFE" d="M579.205 409.889C585.209 410.638 618.274 428.581 626.255 432.45Q641.972 439.909 657.888 446.934L656.438 451.393C655.936 451.458 655.409 451.378 654.919 451.28C646.535 449.605 582.298 416.511 578.726 411.233L579.205 409.889Z"/><path fill="#FEFEFE" d="M717.363 495.023L717.937 495.453C721.76 504.409 727.323 512.749 732.152 521.196C739.378 533.836 746.371 546.732 753.248 559.564L748.157 561.855L747.601 561.934C746.03 560.826 739.7 546.108 738.043 542.921C729.97 527.392 721.266 512.244 712.825 496.923C714.281 496.197 715.852 495.635 717.363 495.023Z"/><path fill="#FEFEFE" d="M320.04 478.268C321.275 478.986 321.678 479.148 322.397 480.356C322.234 481.049 322.015 481.65 321.684 482.283C319.238 486.952 284.252 536.549 281.313 537.433L276.757 534.966C283.343 526.994 289.039 518.33 295.147 509.995C303.054 499.205 311.473 488.541 320.04 478.268Z"/><path fill="#FEFEFE" d="M546.227 503.906C547.384 503.803 547.559 503.889 548.612 504.402L548.732 505.256C547.776 507.017 546.542 508.435 545.143 509.858C531.439 523.806 508.623 534.349 488.971 534.438C487.718 534.219 486.536 534.257 485.561 533.413C490.399 530.869 500.534 529.272 506.435 527.322C522.305 522.079 533.11 513.649 546.227 503.906Z"/><path fill="#FEFEFE" d="M529.335 456.552C530.711 456.348 531.583 456.198 532.952 456.582L533.287 457.275C533.177 457.449 533.082 457.633 532.956 457.797C531.358 459.877 528.2 461.619 526.027 463.1C511.585 472.945 496.417 479.391 479.351 483.029C478.054 483.258 476.932 483.563 475.643 483.127L475.899 482.46C481.824 479.135 488.816 477.515 494.975 474.489C506.487 468.832 517.284 460.886 529.335 456.552Z"/><path fill="#FEFEFE" d="M709.679 474.019C710.389 474.013 711.304 473.96 711.984 474.163C716.112 475.398 718.946 481.405 720.869 484.952C717.097 487.312 713.015 489.261 709.074 491.325C707.489 492.145 705.832 492.851 704.212 493.599C701.845 489.759 700.184 485.492 698.81 481.21C702.041 478.969 705.805 474.665 709.679 474.019Z"/><path fill="#FEFEFE" d="M564.195 385.584C568.835 387.725 573.165 390.342 577.895 392.363C567.712 392.356 557.72 394.671 547.619 395.739C545.572 396.145 543.357 396.077 541.27 396.165C539.437 394.164 538.138 392.604 537.63 389.896L536.981 386.526C546.52 389.138 554.952 389.391 564.195 385.584Z"/><path fill="#FEFEFE" d="M434.153 507.339C434.359 507.351 434.565 507.352 434.769 507.374C436.011 507.506 436.608 507.896 437.317 508.906C440.984 514.126 448.888 537.055 447.621 543.097L446.861 543.176C441.042 536.141 431.665 521.687 431.706 512.248C431.716 509.922 432.579 508.885 434.153 507.339Z"/><path fill="#FEFEFE" d="M529.651 493.543L530.653 494.012L530.243 494.992C519.203 504.642 493.381 513.148 478.987 515.687L477.957 515.403L477.97 514.731C482.429 510.561 522.214 495.384 529.651 493.543Z"/><path fill="#FEFEFE" d="M692.272 412.649C693.536 412.485 694.413 412.413 695.685 412.665C698.307 415.646 695.318 418.808 696.686 422.168C697.518 422.677 698.069 422.767 699.018 422.694C702.093 422.46 705.554 421.66 707.614 419.226C707.7 417.964 707.644 417.956 706.922 416.904C704.28 416.434 702.13 419.018 699.644 419.477C698.605 419.67 698.398 419.449 697.567 418.911C696.742 417.004 697.327 414.672 697.828 412.744C698.018 412.688 698.203 412.614 698.397 412.577C699.778 412.314 702.283 412.468 703.425 413.286L702.359 414.697C703.5 415.365 704.837 415.163 706.115 415.141C706.796 415.067 707.615 415.142 708.285 415.319C710.607 415.933 712.581 417.666 713.705 419.737C713.684 421.009 713.784 421.505 712.655 422.354C709.248 424.918 700.249 424.412 696.113 423.753C690.24 422.817 685.503 420.616 681.946 415.776C685.283 413.956 688.568 413.213 692.272 412.649Z"/><path fill="#FEFEFE" d="M332.581 451.118C334.455 453.246 335.694 456.143 337.045 458.632C336.229 460.289 335.394 462.372 334.008 463.625C330.508 466.792 323.231 465.516 318.875 465.428C317.188 465.329 316.241 465.548 314.895 464.48C314.755 463.049 314.956 462.448 315.818 461.271C319.541 456.185 326.534 452.266 332.581 451.118Z"/><path fill="#FEFEFE" d="M474.668 432.205C475.304 432.14 475.816 432.254 476.441 432.36C472.327 434.162 467.733 435.045 463.734 437.063C451.305 443.337 442.641 453.125 438.245 466.356L437.805 467.351L437.816 467.343C437.627 466.816 437.578 466.751 437.501 466.106C436.793 460.182 439.726 449.35 443.452 444.735C450.261 436.303 464.385 433.145 474.668 432.205Z"/><path fill="#FEFEFE" d="M495.416 445.125C496.695 445.125 496.847 444.973 497.793 445.799C497.745 445.967 497.72 446.143 497.65 446.302C495.024 452.293 468.793 463.302 461.831 465.8L460.217 465.844L459.962 465.058C460.172 464.661 460.272 464.43 460.526 464.082C465.572 457.187 486.901 446.765 495.416 445.125Z"/><path fill="#FEFEFE" d="M345.795 391.554C346.883 391.698 347.073 391.839 347.96 392.504C348.089 393.135 348.129 393.201 348.127 393.934C348.118 396.312 346.705 398.521 344.996 400.057C340.013 404.538 333.518 406.494 326.934 406.043C325.645 405.537 324.853 405.102 323.779 404.184C323.502 402.941 323.533 402.689 324.306 401.55C327.284 397.165 340.623 392.793 345.795 391.554Z"/><path fill="#FEFEFE" d="M557.814 507.744C559.06 508.182 560.236 508.673 561.44 509.218C562.517 510.367 562.77 511.618 562.844 513.156C563.289 522.349 556.763 535.366 550.723 542.112C549.79 542.967 549.308 543.488 548.066 543.893C547.849 541.103 551.412 533.789 552.5 530.532Q554.334 524.965 555.665 519.256Q556.996 513.548 557.814 507.744Z"/><path fill="#FEFEFE" d="M572.396 399.204L578.354 398.793C577.098 401.486 575.573 403.946 573.998 406.46C567.835 405.421 560.48 404.183 554.291 404.616C550.659 404.869 549.242 405.762 546.851 408.453C545.648 410.17 544.753 411.92 543.84 413.806C543.204 409.92 542.675 406.108 542.434 402.177C552.35 402.281 562.521 400.212 572.396 399.204Z"/><path fill="#FEFEFE" d="M507.291 374.95C512.47 374.654 522.627 373.851 526.957 376.617C527.831 377.175 527.553 376.847 527.816 377.881C526.749 379.24 526.123 379.376 524.559 380.032L517.62 383.085C513.943 380.656 510.461 378.015 507.291 374.95Z"/><path fill="#FEFEFE" d="M480.028 361.333C483.292 363.324 486.328 366.178 489.321 368.576L478.375 369.048L469.629 369.318C473.465 367.048 476.699 364.278 480.028 361.333Z"/><path fill="#FEFEFE" d="M490.903 324.699C494.477 324.768 509.769 324.38 511.863 326.002L512.116 328.459C507.383 327.474 494.231 327.95 491.238 326.269L490.903 324.699Z"/><path fill="#FEFEFE" d="M322.317 471.369L331.35 471.533C331.983 474.464 332.853 477.377 333.626 480.276C329.738 478.073 325.849 474.189 322.317 471.369Z"/><path fill="#FEFEFE" d="M340.074 463.275L343.304 467.036L339.84 472.772C339.41 472.918 338.98 472.816 338.532 472.779C338.192 472.387 338.119 472.359 337.904 471.796C336.802 468.91 338.628 465.622 340.074 463.275Z"/></svg>